<?xml version="1.0" encoding="utf-8"?>
<!-- Generator: Adobe Illustrator 27.5.0, SVG Export Plug-In . SVG Version: 6.00 Build 0)  -->
<svg version="1.1" id="Capa_1" xmlns="http://www.w3.org/2000/svg" xmlns:xlink="http://www.w3.org/1999/xlink" x="0px" y="0px"
	 viewBox="0 0 2122 2122" style="enable-background:new 0 0 2122 2122;" xml:space="preserve">
<g>
	<path style="fill:#2B3355;" d="M542.786,1118.441l0.111-0.079c12.753-9.06,27.058-16.698,42.787-23.095l0.38-0.155l0.01-0.504
		v0.005c1.133-40.311,2.102-81.558,9.685-121.189l0.638-0.546c0.479,0.001,0.993,0.369,0.998,0.851
		c0.596,11.337,0.816,22.707,0.816,34.093c0,27.445-1.277,54.986-1.621,82.411l-0.011,0.891l0.841-0.294
		c6.947-2.43,14.117-4.663,21.602-6.629l0.449-0.118l0.015-0.465c1.208-37.622,3.497-77.074,7.313-116.861l0.05-0.527l-0.963-0.255
		c-28.471-12.083-63.836-16.306-100.23-16.308c-42.69,0.001-86.798,5.815-122.823,11.644c-36.004,5.829-64.011,11.672-74.204,11.729
		l-0.568,0.004l-0.049,0.565c-6.6,74.756-8.735,146.854-8.735,208.767c0,16.483,0.151,32.245,0.41,47.143l0.028,1.635l1.068-1.239
		c9.151-10.627,19.084-20.388,29.707-29.355l0.229-0.194l-0.007-0.299c-0.041-1.565-0.084-3.112-0.146-4.606
		c-0.41-9.87-0.76-19.742-1.048-29.616c-0.461-15.797-0.701-31.583-0.701-47.378c0-4.779,0.021-9.558,0.067-14.339
		c0.375-40.305,0.588-81.521,7.412-121.267c0.109-0.456,0.26-0.5,0.6-0.537c0.476-0.005,1.026,0.393,1.034,0.865
		c1.309,18.345,1.628,36.793,1.628,55.265c0,17.583-0.29,35.189-0.29,52.75c0,4.724,0.021,9.444,0.075,14.16
		c0.228,20.17,0.552,40.348,1.036,60.515c0.199,8.298,0.472,16.592,0.758,24.885l0.04,1.201l0.959-0.726
		c49.741-37.667,112.671-59.887,180.518-72.772L542.786,1118.441z"/>
	<path style="fill:#004B81;" d="M760.825,1893.351c-77.536-0.013-135.012-32.526-178.885-90.584
		c-43.864-58.063-74.039-141.711-96.683-243.822c-19.26-86.835-29.282-161.084-29.281-223.502
		c0.009-104.003,27.791-175.076,86.92-217.08l2.332-1.656l-2.81,0.535c-67.532,12.827-130.263,34.908-180.074,72.304
		c-0.271-7.9-0.532-15.798-0.722-23.697c-0.483-20.16-0.808-40.333-1.036-60.499c-0.053-4.711-0.074-9.426-0.074-14.146
		c0-17.548,0.289-35.154,0.289-52.751c0-18.487-0.32-36.964-1.631-55.354c-0.118-1.281-1.238-2.018-2.277-2.023
		c-0.791-0.037-1.686,0.551-1.83,1.574c-6.846,39.883-7.054,81.164-7.43,121.466c-0.044,4.785-0.067,9.569-0.067,14.351
		c0,15.808,0.24,31.605,0.702,47.415c0.288,9.879,0.639,19.756,1.049,29.631c0.057,1.389,0.098,2.835,0.136,4.296
		c-10.583,8.954-20.488,18.691-29.617,29.293c-42.371,49.198-68.078,116.839-68.075,209.559c0,47.278,6.679,101.08,21.232,162.304
		c20.916,87.984,52.853,169.676,103.339,229.417c50.479,59.743,119.56,97.492,214.521,97.483
		c49.767,0,106.637-10.356,171.688-33.305l3.493-1.232l-3.703,0.02C761.828,1893.349,761.326,1893.35,760.825,1893.351z"/>
	<path style="fill:#2B3355;" d="M937.226,174.875l-12.68-0.855c-0.026,0.001-0.104,0.004-0.107,0.005h-0.001h-0.004
		c0,0-0.01,0.001-0.01,0.001l-0.009,0c-259.646,13.934-469.98,252.577-551.83,540.816c-4.046,14.249-7.786,28.75-11.269,43.426
		l-0.225,0.947l0.955-0.192c18.928-3.811,55.888-5.971,97.488-5.97c39.666,0,83.578,1.958,120.209,6.287
		c36.613,4.301,66.025,11.095,76.365,20.385c0.385,0.34,0.722,0.922,0.993,1.675l0.678,1.869l0.511-1.922
		c15.99-60.314,37.962-115.282,67.92-158.448c147.241-212.161,350.813-251.49,481.669-251.5c43.922,0,79.641,4.436,102.265,8.257
		l1.67,0.283l-1.088-1.299C1167.075,207.281,986.25,179.363,937.226,174.875z"/>
	<path style="fill:#004B81;" d="M1426.215,580.32c18.921,48.765,31.856,103.022,40.456,158.699l0.105,0.685l0.671-0.177
		c21.821-5.782,77.93-8.447,136.2-8.441c61.593-0.003,125.717,2.961,154.611,8.248l0.921,0.169l-0.199-0.914
		c-19.547-89.933-49.391-178.313-94.235-254.835c-126.849-216.42-386.874-299.56-564.662-308.392
		c-38.229-1.898-74.708-2.458-104.429-2.463h-0.359c-42.346,0-70.866,1.129-70.872,1.129c0,0,3.397,1.316,9.679,1.829
		c43.979,3.589,229.22,28.874,375.667,203.586C1353.679,431.824,1394.12,497.599,1426.215,580.32z"/>
	<path style="fill:#61B9D9;" d="M1390.901,1075.573c-58.086-0.018-105.618,27.66-145.595,90.227
		c-39.995,62.567-72.572,160.025-101.055,299.881c-13.058,64.122-20.674,122.527-20.674,174.586
		c-0.055,133.953,50.586,226.017,188.431,264.499c3.971,1.11,7.845,2.124,11.659,3.078l1.711,0.428l-1.062-1.408
		c-29.689-39.36-51.459-131.46-51.443-245.522c0-58.45,5.7-122.68,18.932-188.575c52.386-261.057,120.865-361.118,170.122-384.504
		l1.465-0.698l-1.555-0.464C1436.557,1079.556,1412.972,1075.573,1390.901,1075.573z"/>
	<path style="fill:#004B81;" d="M1784.835,1274.202l0.085-0.938c3.59-39.397,8.152-105.154,8.152-184.96
		c0-37.472-1.006-78.042-3.59-120.435l-0.043-0.708l-0.696,0.133c-21.363,4.077-71.707,5.747-126.17,5.745
		c-71.522,0.001-150.261-2.868-180.198-6.844l-0.701-0.093l-0.004,0.707c-0.267,41.767-1.912,80.815-4.084,115.088
		c-0.339,0.053-0.684,0.106-1.004,0.165c-4.834,0.898-9.913,2.562-15.19,5.075c-50.006,23.864-118.335,124.198-170.808,385.384
		c-13.249,65.982-18.956,130.29-18.956,188.821c0.016,114.24,21.698,206.428,51.693,246.273c2.691,3.571,5.443,6.79,8.271,9.505
		c19.577,18.773,55.062,31.562,98.569,31.568c68.531,0.002,156.986-31.794,234.384-122.424c8.269-9.684,16.363-21.283,24.207-34.433
		l0.707-1.186l-1.358,0.253c-7.517,1.402-14.754,2.052-21.603,2.052c-23.277,0.005-42.085-7.524-52.337-18.504
		c-17.823-18.998-31.269-76.533-31.239-150.028c0-37.93,3.551-80.132,11.842-123.552c17.06-89.36,36.484-148.362,55.088-185.745
		c18.596-37.396,36.407-53.103,49.98-56.05c4.308-0.944,10.916-1.746,19.081-1.746c17.069,0,40.948,3.499,65.092,16.434
		L1784.835,1274.202z"/>
	<path style="fill:#2B3355;" d="M1855.782,1354.906c-18.612-43.306-45.054-68.251-71.188-82.248
		c-24.366-13.052-48.446-16.582-65.682-16.582c-8.249,0-14.929,0.807-19.347,1.775c-14.245,3.147-32.14,19.187-50.83,56.713
		c-18.68,37.54-38.122,96.634-55.197,186.066c-8.306,43.503-11.864,85.779-11.864,123.787c0.03,73.682,13.289,131.244,31.575,150.88
		c10.587,11.317,29.707,18.895,53.248,18.899c6.928,0,14.24-0.658,21.832-2.073c34.369-6.41,74.455-28.368,110.586-75.297
		c37.949-49.336,70.625-176.338,70.647-273.796C1869.56,1408.285,1865.405,1377.302,1855.782,1354.906z"/>
	<path style="fill:#2B3355;" d="M1638.397,1829.872c-8.307-1.427-13.92-5.483-19.66-11.628
		c-7.707-8.264-14.647-16.976-21.758-25.681c-19.325-23.656-31.091-53.429-36.19-83.36c-3.441-20.19-3.9-41.22-4.2-61.723
		c-0.045-3.072-0.068-6.144-0.068-9.216c0-18.654,0.823-37.307,2.381-55.897c3.638-43.422,11.444-86.444,21.869-128.745
		c5.831-23.661,12.821-46.947,20.041-70.23c7.195-23.203,14.03-46.467,20.967-69.725l0.066-0.451
		c-0.028-0.984-0.855-1.571-1.661-1.576c-0.492-0.012-1.054,0.265-1.332,0.802c-10.594,19.557-20.024,39.12-28.268,59.816
		c-8.454,21.222-15.555,43.036-22.139,64.885c-13.292,44.104-23.147,89.116-28.985,134.824c-3.471,27.17-5.937,55.083-5.937,82.868
		c0,17.479,0.976,34.907,3.293,52.068c4.677,34.642,17.035,68.458,39.446,95.65c9.062,10.993,20.502,20.115,33.823,25.529
		c4.981,2.022,10.148,3.034,15.215,4.35c4.088,1.058,7.987,2.44,12.361,2.885l0.265,0.013c0.807,0.005,1.484-0.403,1.895-0.952
		c0.417-0.551,0.62-1.232,0.622-1.911C1640.468,1831.363,1639.799,1830.104,1638.397,1829.872z"/>
	<path style="fill:#2B3355;" d="M1470.292,1132.098c-0.66-0.005-1.349,0.288-1.889,0.875
		c-17.087,18.321-29.085,41.462-40.444,63.498c-13.033,25.286-24.822,51.448-34.772,78.112
		c-21.544,57.729-37.997,117.357-50.031,177.764c-10.451,52.462-15.08,106.266-15.08,160.094c0,48.784,3.802,97.588,10.517,145.434
		c7.804,55.595,20.828,113.109,46.328,163.598c0.604,1.22,1.771,1.787,2.878,1.774c1.83-0.007,3.741-1.377,3.774-3.48l-0.156-1.011
		c-30.343-97.973-45.692-199.875-45.74-302.49l-0.624,0l0.624-0.001l-0.001-0.618c0-47.881,2.644-95.952,10.654-143.184
		c9.802-57.806,24.622-115.306,43.11-170.931c10.144-30.517,21.196-60.833,34.384-90.158c11.603-25.802,26.316-49.785,38.961-75.1
		l0.298-1.254C1473.063,1133.453,1471.821,1132.126,1470.292,1132.098z"/>
	<path style="fill:#2B3355;" d="M575.718,1849.083c-14.698-16.115-26.272-34.17-37.741-52.704
		c-23.587-38.115-40.703-80.028-56.449-121.918c-19.908-52.964-35.446-107.177-47.082-162.539
		c-10.05-47.816-15.932-96.506-15.932-145.354c0-5.931,0.086-11.864,0.264-17.797c0.898-30.223,4-60.366,9.616-90.076
		c2.796-14.788,6.336-29.38,10.172-43.941c3.952-15.004,8.924-29.749,12.131-45.012l0.047-0.454
		c-0.017-1.262-1.055-2.136-2.153-2.143c-0.643-0.01-1.331,0.347-1.715,1.03c-13.773,23.651-20.891,51.625-27.047,78.001
		c-6.266,26.859-10.508,54.194-12.931,81.66c-1.689,19.155-2.488,38.372-2.488,57.591c0,36.837,2.934,73.682,8.159,110.118
		c8.271,57.683,23.798,114.167,43.013,169.091c15.911,45.478,33.431,91.251,59.004,132.384
		c25.818,41.515,64.241,82.709,111.95,98.202l0.38,0.061c0.754-0.017,1.151-0.666,1.152-1.221l-0.545-1.023
		C608.668,1880.566,590.955,1865.79,575.718,1849.083z"/>
	<path style="fill:#2B3355;" d="M1117.583,209.984c12.274,5.051,24.31,10.695,36.086,16.823
		c23.229,12.09,45.465,26.098,66.482,41.719c40.864,30.372,77.507,66.863,109.417,106.488
		c30.156,37.449,56.202,78.221,78.589,120.756c20.108,38.206,38.368,77.837,53.081,118.436
		c12.493,34.471,24.513,69.711,29.984,106.001c0.084,0.604,0.669,0.905,1.067,0.878l0.724-0.237l0.408-0.814l-0.003-0.094
		l-0.002-0.018l0-0.005c-8.151-74.983-31.93-148.581-65.606-215.868c-44.806-89.524-105.984-173.651-185.982-234.892
		c-23.715-18.154-48.989-34.327-75.635-47.849c-13.478-6.839-27.291-13.022-41.361-18.538c-13.791-5.404-28.856-11.483-43.864-12.26
		l-0.1-0.003c-0.553-0.005-1.042,0.257-1.341,0.624c-0.303,0.366-0.452,0.82-0.453,1.279c-0.006,0.599,0.281,1.26,0.909,1.622
		C1091.698,200.852,1105.149,204.865,1117.583,209.984z"/>
	<polygon style="fill:#2B3355;" points="1618.73,439.134 1618.73,439.133 1618.729,439.129 	"/>
	<path style="fill:#2B3355;" d="M1641.708,489.962c8.185,17.617,15.464,35.569,22.76,53.584
		c14.43,35.63,26.994,71.642,37.472,108.633c5.838,20.605,10.045,41.43,18.759,61.204c0.552,1.291,1.732,1.906,2.859,1.888
		c1.897-0.016,3.885-1.48,3.965-3.652c0.013-0.732,0.019-1.462,0.019-2.19c-0.001-18.867-4.501-36.604-9.227-54.738
		c-4.94-18.944-10.732-37.653-17.085-56.162c-12.561-36.598-27.622-71.893-45.771-106.076
		c-10.108-19.037-20.794-37.831-34.361-54.703l-0.984-0.466c-0.727,0.023-1.426,0.507-1.475,1.384l0.091,0.466
		C1625.627,456.452,1633.875,473.1,1641.708,489.962z"/>
	<path style="fill:#2B3355;" d="M1689.233,1238.621c10.737,1.465,21.551,2.649,32.426,2.649c0.994,0,1.99-0.01,2.986-0.03
		c10.5-0.221,21.676-0.423,31.209-5.901c1.168-0.665,1.731-1.828,1.722-2.951c0-1.492-0.93-2.99-2.536-3.525
		c-2.822-0.93-5.694-1.451-8.568-1.85c5.04-17.779,7.437-36.323,10.172-54.501c3.061-20.348,5.38-40.793,7.195-61.284
		c2.275-25.685,4.593-51.968,4.593-78.107c0-15.31-0.796-30.571-2.863-45.633c-0.147-1.006-1.075-1.464-1.828-1.446
		c-0.759-0.015-1.686,0.435-1.849,1.438c-6.192,40.525-6.858,81.772-11.62,122.403c-2.397,20.46-5.276,40.864-8.383,61.232
		c-2.783,18.255-6.741,36.399-8.669,54.817c-1.583-0.063-3.165-0.123-4.734-0.209c-9.663-0.524-19.37-1.263-28.98-2.345
		c-20.461-2.305-40.73-6.746-60.473-12.595c-35.605-10.549-69.635-26.4-100.45-47.114c0.013-1.839,0.021-3.678,0.021-5.516
		c0-28.056-1.558-56.053-3.858-84.013c-1.248-15.161-2.834-30.213-5.101-45.266c-1.203-7.988-2.339-16.023-3.985-23.964
		c-1.455-6.98-2.293-15.068-5.828-21.577c-0.404-0.74-1.174-1.078-1.886-1.073c-0.894-0.01-1.879,0.535-2.121,1.609
		c-0.558,2.519-0.744,5.121-0.744,7.738c0,4.528,0.555,9.108,0.746,13.403c0.343,7.707,1.026,15.376,1.545,23.044
		c1.07,15.811,2.32,31.598,3.418,47.398c1.809,26.021,2.714,52.101,3.565,78.184c-15.526-11.554-30.205-24.37-41.435-40.205
		c-0.417-0.599-1.054-0.911-1.657-0.904c-1.034,0-1.977,0.825-1.986,1.976l0.212,0.927c16.892,36.922,48.89,64.365,84.244,83.001
		C1602.69,1218.962,1645.612,1232.669,1689.233,1238.621z"/>
	<path style="fill:#004B81;" d="M596.397,971.631c-0.795-0.033-1.694,0.539-1.862,1.56c-7.608,39.768-8.573,81.08-9.707,121.388
		l-0.002,0.099l-0.018,0.946l0.877-0.356c3.825-1.556,7.733-3.038,11.735-4.437l0.412-0.144l0.005-0.437
		c0.344-27.397,1.621-54.943,1.621-82.427c0-11.402-0.22-22.794-0.818-34.159C598.552,972.373,597.43,971.631,596.397,971.631z"/>
	<path style="fill:#004B81;" d="M1840.707,1390.687c-20.348-4.441-51.634,59.744-69.881,143.359
		c-18.247,83.616-16.544,154.998,3.803,159.439c20.347,4.44,51.634-59.744,69.881-143.359
		C1862.756,1466.511,1861.054,1395.128,1840.707,1390.687z M1844.568,1497.106c-0.295,15.662-1.143,31.25-3.295,46.775
		c-4.188,30.22-11.614,60.559-31.121,84.681c-2.36,2.919-7.647-0.226-6.352-3.697c10.285-27.576,19.518-55.546,23.677-84.787
		c2.129-14.965,3.623-30.042,4.606-45.123c0.491-7.541,1.097-15.062,1.69-22.596c0.601-7.628,2.294-14.882,3.155-22.472
		c0.326-2.869,4.188-2.891,4.483,0c0.847,8.317,2.443,16.243,2.82,24.621C1844.573,1482.053,1844.711,1489.553,1844.568,1497.106z"
		/>
	<path style="fill:#004B81;" d="M415.341,735.415c0.666-0.003,1.338-0.307,1.766-0.903c2.686-3.788,4.79-6.307,5.873-11.019
		c1.074-4.663,2.202-9.314,3.368-13.956c2.219-8.838,4.587-17.639,7.129-26.388c4.945-17.01,10.061-33.927,15.986-50.611
		c11.226-31.608,25.129-61.74,40.678-91.445c28.07-53.626,63.418-103.307,105.276-147.043
		c37.071-38.734,78.686-72.971,124.347-101.099c39.225-24.164,81.164-43.892,125.225-57.418
		c36.53-11.214,71.748-18.259,109.159-19.822c3.529-0.155,7.353-1.293,10.685-1.285l1.047,0.04l0.441,0.018
		c1.374,0.006,2.49-0.558,3.201-1.416c0.716-0.857,1.052-1.967,1.052-3.085c0.02-2.037-1.24-4.149-3.558-4.843
		c-0.075-0.121-0.154-0.185-0.18-0.222l-0.524-0.206c-0.547-0.157-1.49-0.371-1.732-0.448c-0.9-0.281-1.818-0.515-2.716-0.737
		c-2.431-0.603-4.8-0.926-7.264-1.171c-4.11-0.409-8.237-0.661-12.355-0.844c-3.023-0.134-6.05-0.201-9.075-0.201
		c-5.865,0-11.73,0.254-17.573,0.769c-20.252,1.786-40.397,5.545-60.084,10.5c-45.309,11.405-88.954,30.907-129.348,54.125
		c-47.244,27.155-91.236,60.704-129.814,99.2c-43.289,43.197-80.463,92.616-110.197,146.043
		c-33.833,60.792-57.871,128.259-71.418,196.426c-0.875,4.406-1.704,8.819-2.511,13.235c-0.22,1.2-0.315,2.309-0.315,3.368
		c0.001,3.08,0.795,5.698,1.592,8.993C413.713,734.921,414.57,735.438,415.341,735.415z"/>
	<path style="fill:#004B81;" d="M1260.099,344.296c-24.55-9.403-53.237-10.238-79.129-10.612c-2.187-0.031-4.373-0.047-6.558-0.047
		c-24.823,0-49.472,2.007-74.034,5.747c-52.981,8.068-104.532,24.015-153.273,46.188
		c-96.356,43.834-184.021,114.594-241.076,204.419c-15.913,25.053-29.806,51.335-41.202,78.749
		c-5.598,13.465-10.559,27.172-14.655,41.176c-2.057,7.031-3.941,14.113-5.648,21.237c-0.89,3.721-2.217,7.72-2.624,11.658
		c-0.05,0.482-0.073,0.961-0.072,1.439c0.003,3.008,0.879,5.89,1.508,8.677c0.193,0.952,1.051,1.476,1.806,1.447
		c0.678-0.004,1.348-0.308,1.792-0.881c1.828-2.416,4.167-4.8,5.395-7.842c1.063-2.657,1.507-5.619,2.251-8.233
		c1.839-6.496,3.831-12.95,5.964-19.355c4.072-12.226,8.604-24.344,13.56-36.239c9.859-23.663,21.781-46.666,35.562-68.283
		c27.685-43.429,61.889-82.948,100.509-116.988c77.836-68.606,174.84-116.385,276.874-135.388
		c27.898-5.196,56.319-8.186,84.684-9.14c4.948-0.167,9.892-0.236,14.836-0.236c9.593,0,19.185,0.26,28.797,0.577
		c11.882,0.389,23.859,1.54,35.821,1.54c2.536,0,5.072-0.052,7.607-0.174c2.99-0.124,4.676-2.414,4.647-4.703
		C1263.449,347.123,1262.323,345.143,1260.099,344.296z"/>
	<path style="fill:#61B9D9;" d="M674.57,1075.55c-17.75,0-35.722,2.249-53.763,6.851c-0.745,0.191-1.417,0.415-2.103,0.595
		c-7.518,1.975-14.722,4.218-21.696,6.658c-4.022,1.407-7.951,2.896-11.793,4.459c-15.805,6.428-30.197,14.11-43.04,23.233
		c-59.563,42.306-87.454,113.908-87.445,218.097c0,62.551,10.038,136.878,29.31,223.771
		c22.668,102.197,52.866,185.995,96.906,244.303c44.03,58.311,101.986,91.093,179.88,91.08c0.503,0,1.007-0.001,1.512-0.004
		c17.769-0.096,36.516-1.796,56.427-5.365c71.356-12.779,115.91-50.047,142.526-99.515c26.623-49.466,35.373-111.091,35.376-172.743
		c0-62.505-9.003-125.048-17.569-174.982C940.165,1215.055,814.44,1075.58,674.57,1075.55z"/>
	<path style="fill:#61B9D9;" d="M1794.693,819.563c-2.883-19.03-6.23-36.593-9.791-50.183c-3.592-13.603-7.262-23.173-11.232-26.488
		c-2.315-1.866-7.522-3.37-15.188-4.787c-29.085-5.315-93.187-8.266-154.835-8.268c-58.34,0.005-114.38,2.635-136.518,8.483
		c-5.035,1.358-8.373,2.768-9.719,4.708c-2.173,3.305-3.578,10.98-4.552,21.803c-0.956,10.806-1.401,24.682-1.401,40.087
		c0,31.75,1.892,69.987,5.128,101.104c1.618,15.56,3.571,29.337,5.797,39.649c1.114,5.157,2.294,9.447,3.547,12.678
		c1.267,3.227,2.544,5.415,4.129,6.385c1.758,1.021,5.876,1.849,12.153,2.695c30.087,3.993,108.793,6.854,180.362,6.856
		c54.509-0.003,104.811-1.656,126.403-5.767c5.645-1.103,9.322-2.244,10.848-3.908c1.708-1.981,2.755-5.983,3.492-11.71
		c0.719-5.72,1.051-13.136,1.051-21.767C1804.366,901.529,1800.458,857.622,1794.693,819.563z"/>
	<path style="fill:#61B9D9;" d="M625.454,967.145l0.04,0.017l0.522,0.138l0.784,0.1c1.383-0.004,2.493-0.948,3.362-2.393
		c3.036-5.067,4.61-17.659,6.309-34.585c1.678-16.902,3.392-38.033,6.442-59.792c4.56-32.591,16.056-68.576,16.075-84.324
		c-0.002-2.147-0.211-3.932-0.716-5.334c-0.313-0.855-0.714-1.62-1.335-2.179c-10.935-9.707-40.329-16.329-77.049-20.693
		c-36.701-4.337-80.647-6.295-120.355-6.296c-41.655,0.002-78.619,2.15-97.734,5.995c-6.234,1.266-10.585,2.652-12.72,4.379
		c-3.642,3.037-7.216,11.491-10.812,23.538c-10.705,36.096-20.586,104.118-20.59,147.743c0,11.9,0.733,21.981,2.405,29.148
		c0.839,3.585,1.908,6.445,3.287,8.465c1.365,2.013,3.135,3.219,5.226,3.214l0.029,0h0.024l0.027-0.002
		c10.538-0.091,38.383-5.927,74.357-11.744c35.994-5.824,80.045-11.628,122.623-11.628
		C561.976,950.913,597.221,955.143,625.454,967.145z"/>
	<path style="fill:#2C87AE;" d="M930.925,1444.403c-16.987-78.417-44.28-142.638-76.352-187.296
		c-32.068-44.645-68.946-69.787-105.161-69.799c-5.684,0-11.348,0.621-16.967,1.883c-23.538,5.278-40.951,17.595-52.4,37.296
		c-11.453,19.698-16.98,46.723-16.981,81.5c0.001,46.875,10.047,107.859,29.324,184.043
		c18.136,71.667,39.213,130.482,66.439,171.441c27.21,40.954,60.682,64.085,103.408,64.076c4.947,0,10.017-0.309,15.215-0.936
		c28.716-3.447,47.397-19.012,58.773-41.692c11.388-22.679,15.575-52.454,15.577-84.57
		C951.797,1547.657,940.505,1488.642,930.925,1444.403z"/>
	<path style="fill:#FFFFFF;" d="M1754.569,850.165c1.948,14.775,3.581,29.591,4.91,44.435c1.393,15.562,2.034,31.424,4.318,46.943
		c0.646,4.544,4.234,6.659,7.878,6.625c4.709,0.007,9.882-3.319,10.015-8.957c0.019-0.982,0.028-1.966,0.028-2.951
		c-0.001-14.318-1.931-28.906-3.631-42.995c-1.881-15.583-4.07-31.132-6.598-46.625c-2.469-15.141-5.529-30.12-8.98-45.061
		c-3.323-14.373-6.66-30.298-14.334-43.143c-0.47-0.805-1.277-1.213-2.042-1.204c-1.247,0.001-2.445,0.965-2.564,2.41
		c-0.157,2.009-0.228,4.032-0.228,6.064c0.002,12.835,2.821,26.045,4.744,38.496
		C1750.446,819.485,1752.546,834.828,1754.569,850.165z"/>
	<path style="fill:#FFFFFF;" d="M1719.771,859.148c1.43,9.812,2.408,19.679,3.444,29.559c0.514,4.902,0.957,9.81,1.329,14.724
		c0.19,2.466,0.257,4.901,0.93,7.116c0.666,2.215,2.01,4.208,4.607,5.568c0.972,0.512,2.132,0.836,3.307,0.838
		c1.021,0,2.064-0.252,2.951-0.88c3.737-2.616,4.647-5.799,4.619-9.359c0-1.395-0.123-2.863-0.244-4.432
		c-0.384-4.925-0.83-9.845-1.362-14.758c-1.099-10.122-2.764-20.19-4.622-30.183c-3.734-20.078-8.808-39.836-18.115-58.165
		c-0.48-0.952-1.447-1.377-2.336-1.369c-1.338,0.003-2.824,0.914-2.847,2.562l0.011,0.224h0c0,0.003,0,0.005,0.001,0.008v0
		C1713.139,820.291,1716.932,839.659,1719.771,859.148z"/>
	<path style="fill:#FFFFFF;" d="M376.278,898.52c-0.316-10.714-0.518-21.426-0.518-32.14c0-1.48,0.003-2.959,0.012-4.438
		c0.066-12.189,0.513-24.364,0.859-36.561c0.184-6.496,0.341-12.986,0.612-19.469c0.023-0.557,0.033-1.106,0.033-1.646
		c-0.003-6.383-1.509-11.692-2.242-17.9c-0.21-1.751-1.653-2.845-3.098-2.841c-1.122-0.019-2.28,0.714-2.708,2.101
		c-1.956,6.062-4.65,11.061-5.454,17.753c-0.775,6.487-1.45,12.988-2.061,19.489c-1.181,12.576-1.678,25.228-2.094,37.829
		c-0.333,10.105-0.535,20.222-0.535,30.338c0,2.503,0.012,5.006,0.039,7.51c0.067,6.518,0.321,13.031,0.604,19.533
		c0.272,6.016-0.427,13.278,2,19.155c1.43,3.431,4.731,5.416,7.936,5.42c2.94,0.022,5.836-1.757,6.897-5.485
		c0.715-2.468,0.938-5.031,0.938-7.605c-0.001-3.902-0.51-7.839-0.647-11.535C376.608,911.531,376.47,905.028,376.278,898.52z"/>
	<path style="fill:#FFFFFF;" d="M404.169,867.022v-0.004c0.006-0.972,0.008-1.944,0.008-2.915c0-3.108-0.03-6.216-0.091-9.323
		c-0.086-4.379-0.377-8.615-1.051-12.961c-0.642-4.121-2.167-8.076-3.181-11.995c-0.489-1.836-2.248-2.769-3.882-2.766
		c-1.554-0.026-3.218,0.909-3.538,2.816c-0.723,4.183-2.01,8.29-2.556,12.614c-0.518,4.121-0.732,8.154-0.889,12.28
		c-0.155,4.071-0.361,8.14-0.622,12.206c-0.206,3.226-0.66,6.542-0.661,9.87c0,1.315,0.071,2.632,0.261,3.947
		c0.578,3.597,4.519,5.929,7.743,5.96c3.522-0.01,6.799-2.465,7.729-5.888c0.666-2.488,0.8-5.166,0.801-7.809
		c0-1.934-0.073-3.85-0.073-5.656L404.169,867.022z"/>
	<path style="fill:#FFFFFF;" d="M1809.748,1377.723c6.255-5.262,13.915-8.591,20.367-13.884c0.897-0.735,1.282-1.809,1.278-2.848
		c-0.007-2.123-1.521-4.413-3.919-4.456l-0.386,0.022c-16.57,1.859-32.093,17.448-41.956,29.482
		c-12.094,14.789-21.137,31.945-27.426,49.927c-6.949,19.869-12.291,40.395-16.778,60.927c-3.475,15.905-7.108,32.419-7.109,48.905
		c0,4.721,0.298,9.439,0.985,14.139c0.168,1.212,1.259,1.815,2.201,1.787c0.993,0.002,2.102-0.557,2.405-1.729
		c4.751-19.54,8.167-39.238,13.76-58.518c5.447-18.776,10.473-37.769,16.651-56.282c5.682-17.03,12.173-33.961,22.613-48.604
		C1797.391,1389.638,1803.21,1383.214,1809.748,1377.723z"/>
	<path style="fill:#FFFFFF;" d="M1687.749,682.27c-0.506-16.186-4.294-31.962-8.025-47.573
		c-3.786-15.836-8.042-31.531-13.699-46.833c-11.365-30.742-24.984-60.519-40.961-89.14
		c-31.506-56.437-71.961-107.345-119.016-151.619c-13.286-12.5-26.99-24.595-41.173-36.078
		c-12.919-10.452-27.02-23.466-42.909-29.444l-0.661-0.126c-0.549-0.005-1.021,0.287-1.296,0.66
		c-0.28,0.375-0.414,0.827-0.417,1.286l0.44,1.278c4.963,6.027,11.356,10.766,17.22,15.713c6.464,5.45,13.058,10.711,19.427,16.233
		c11.774,10.208,23.235,20.8,34.138,31.926c21.874,22.324,42.174,46.2,60.667,71.396c36.762,50.084,67.849,104.763,90.963,162.453
		c6.535,16.311,12.851,32.786,18.788,49.321c6.153,17.136,10.679,34.915,17.658,51.84c0.843,2.026,2.843,3.077,4.72,3.077
		c1.04,0,2.073-0.324,2.86-1.033c0.789-0.706,1.284-1.798,1.279-3.152l-0.002-0.181V682.27z"/>
	<path style="fill:#FFFFFF;" d="M1736.437,1048.357c0-16.656-1.024-33.315-4.349-49.445c-0.315-1.688-1.631-2.575-2.92-2.541
		c-1.743,0.014-3.566,1.312-3.86,3.336c-3.896,29.135-3.229,58.847-5.695,88.053c-1.2,14.229-2.348,28.438-4.02,42.606
		c-0.862,7.301-1.58,14.515-1.985,21.869c-0.133,2.411-0.242,5.052-0.242,7.75c0.001,4.634,0.316,9.43,1.397,13.531
		c0.323,1.266,1.446,1.938,2.512,1.92c0.884,0.001,1.793-0.416,2.349-1.243l-0.517-0.347l0.518,0.346
		c3.58-5.362,5.78-12.804,7.368-18.9c1.92-7.385,3.058-14.815,3.969-22.349c1.81-14.965,3.411-30.024,4.172-45.099
		C1735.789,1074.862,1736.437,1061.61,1736.437,1048.357z"/>
	<path style="fill:#FFFFFF;" d="M1567.3,1344.041l-0.188,0.559c-5.135,15.25-11.38,30.146-16.3,45.536
		c-4.776,14.939-9.247,29.996-13.425,45.112c-8.438,30.533-15.995,61.354-21.89,92.496c-7.097,37.489-11.316,75.293-11.316,113.191
		c0,21.644,1.375,43.318,4.378,64.982c4.481,32.325,11.745,66.481,27.46,95.474c1.547,2.871,4.266,4.135,6.95,4.124
		c4.419-0.002,8.991-3.292,9.02-8.181c0.001-0.806-0.128-1.648-0.401-2.51c-8.713-27.487-18.104-54.247-23.269-82.661
		c-4.908-26.994-6.96-54.472-6.96-81.909c0-1.362,0.005-2.724,0.016-4.084c0.445-60.523,9.768-120.005,23.622-178.845
		c3.961-16.824,8.089-33.618,12.319-50.377c4.342-17.207,7.344-34.669,11.557-51.843l0.144-0.589l-1.147-0.316L1567.3,1344.041z"/>
	<path style="fill:#FFFFFF;" d="M1557.802,1852.138c-1.764-0.002-3.621,0.603-5.307,1.976
		c-17.096,13.877-35.166,25.556-55.612,33.789c-9.947,4.005-20.279,7.081-30.792,9.196c-5.224,1.051-10.49,2.036-15.744,2.912
		c-5.924,0.99-11.586,2.666-17.432,3.258c-2.35,0.271-3.825,2.462-3.838,4.473c-0.041,1.486,0.962,3.004,2.925,3.271
		c5.63,0.869,11.241,2.478,17.095,2.622c0.993,0.024,1.982,0.036,2.969,0.036c5.046,0,10.026-0.319,15.06-1.019
		c12.05-1.674,23.907-4.497,35.385-8.549c22.641-7.994,44.65-21.202,61.032-38.883c1.589-1.711,2.297-3.603,2.294-5.394
		C1565.818,1855.633,1562.093,1852.15,1557.802,1852.138z"/>
	<path style="fill:#FFFFFF;" d="M1457.803,1869.18c5.255-1.151,10.468-2.555,15.578-4.248c5.302-1.758,10.375-4.475,15.199-7.132
		c4.589-2.529,9.113-5.277,13.377-8.355c2.394-1.728,4.688-3.606,6.929-5.498c2.867-2.397,5.031-4.45,5.182-8.708l0.004-0.211
		c-0.02-3.135-2.769-5.233-5.566-5.418l-0.629-0.021c-3.461,0.003-5.604,2.008-7.969,3.957c-1.951,1.61-3.99,3.12-6.009,4.697
		c-3.936,3.075-8.012,5.953-12.246,8.602c-4.282,2.681-8.841,4.916-13.243,7.528c-4.436,2.633-9.046,4.945-13.771,7.037
		c-1.515,0.651-2.244,1.97-2.225,3.259c0.021,2.258,1.916,4.57,4.503,4.606L1457.803,1869.18z"/>
	<path style="fill:#FFFFFF;" d="M1844.855,1474.479c-0.382-8.441-1.981-16.38-2.823-24.656c-0.158-1.74-1.521-2.745-2.844-2.721
		c-1.328-0.021-2.699,0.978-2.879,2.714c-0.854,7.543-2.549,14.805-3.157,22.494c-0.594,7.533-1.199,15.057-1.691,22.604
		c-0.982,15.068-2.475,30.129-4.601,45.076c-4.149,29.168-13.364,57.096-23.644,84.657l-0.241,1.31
		c0.046,2.503,2.415,4.356,4.744,4.38c1.056,0.006,2.147-0.422,2.918-1.382c19.622-24.268,27.06-54.73,31.254-84.988
		c2.156-15.558,3.005-31.172,3.301-46.849c0.037-1.997,0.055-3.991,0.055-5.983
		C1845.246,1485.58,1845.105,1480.041,1844.855,1474.479z"/>
	<path style="fill:#FFFFFF;" d="M1382.849,1224.51c-0.471-0.02-1.019,0.298-1.225,0.831
		c-15.521,36.393-28.143,74.101-39.418,112.007c-11.494,38.641-21.868,77.652-30.13,117.13
		c-13.114,62.658-21.735,126.861-21.735,191.036c0,15.222,0.484,30.442,1.51,45.64c2.977,44.122,8.845,88.352,23.118,130.411
		c0.371,1.145,1.359,1.754,2.294,1.735c1.254-0.002,2.52-0.988,2.523-2.531l-0.04-0.489c-6.51-38.626-12.692-77.466-14.633-116.587
		c-0.689-13.894-1.023-27.832-1.023-41.777c0-24.81,1.055-49.646,3.035-74.317c6.303-78.544,22.162-156.298,42.177-232.438
		c11.304-43.003,24.399-85.57,35.104-128.749l0.042-0.349C1384.408,1225.113,1383.649,1224.532,1382.849,1224.51z"/>
	<path style="fill:#FFFFFF;" d="M1330.495,1144.107c8.109-4.557,16.633-8.249,25.423-11.32c7.674-2.726,20.914-3.615,26.602-10.842
		c0.855-1.1,1.316-2.296,1.316-3.483c0.005-1.561-0.813-3.036-2.304-4.134c-2.869-2.127-6.438-2.876-10.178-2.876
		c-7.03,0.005-14.785,2.63-20.216,4.177c-9.763,2.788-19.209,6.823-28.16,11.562c-18.351,9.715-34.403,23.038-47.289,39.32
		c-12.898,16.299-22.176,34.663-29.857,53.854c-3.742,9.349-7.839,19.153-10.294,29.019c-2.657,10.684-4.387,21.485-7.054,32.073
		l-0.077,0.591c-0.005,0.596,0.26,1.125,0.653,1.458c0.391,0.336,0.886,0.502,1.389,0.502c0.794,0.011,1.659-0.457,2.035-1.383
		c2.06-4.996,4.857-9.525,7.155-14.487c2.087-4.515,3.716-9.167,5.922-13.507c4.468-8.8,7.85-18.2,12.137-27.031
		c8.226-16.947,17.979-33.314,30.049-47.79C1299.701,1165.473,1314.219,1153.254,1330.495,1144.107z"/>
	<path style="fill:#FFFFFF;" d="M1294.569,1217.717c4.152-6.459,9.293-11.79,14.16-17.802c4.908-6.066,10.367-11.682,16.283-16.77
		c5.635-4.846,11.737-9.116,18.171-12.848c3.304-1.916,6.693-3.684,10.155-5.295c4.081-1.891,7.094-4.436,9.327-8.396
		c0.427-0.754,0.627-1.571,0.627-2.368c0.002-2.059-1.331-4.015-3.479-4.645c-1.548-0.453-3.078-0.655-4.581-0.655
		c-7.441,0.017-14.132,4.879-20.055,8.758c-7.04,4.626-13.71,9.904-19.806,15.721c-6.064,5.787-11.53,12.161-16.452,18.933
		c-4.818,6.634-7.93,15.043-10.799,22.554l-0.237,1.224c0.028,2.015,1.896,3.186,3.656,3.189
		C1292.661,1219.324,1293.853,1218.832,1294.569,1217.717z"/>
	<path style="fill:#FFFFFF;" d="M769.136,1707.626c-6.167-4.524-11.896-10.134-17.464-15.482
		c-10.541-10.126-20.291-20.62-28.674-32.595c-17.681-25.256-30.45-53.598-40.853-82.562
		c-25.074-69.809-40.172-143.122-43.398-217.253c-0.624-14.325-0.841-28.699-0.841-43.064c0-6.288,0.042-12.574,0.109-18.852
		c0.114-10.678,0.466-21.354,1.06-32.017c0.105-1.894,0.146-3.784,0.146-5.672c0-6.833-0.537-13.635-0.537-20.432
		c0-1.935,0.043-3.869,0.155-5.803l0.004-0.139c0.005-0.704-0.332-1.308-0.799-1.677c-0.468-0.375-1.048-0.556-1.628-0.557
		c-0.936-0.022-2,0.558-2.253,1.735c-2.045,9.145-5.421,18.193-7.173,27.474c-1.799,9.545-2.544,19.398-3.515,28.999
		c-1.761,17.42-2.664,34.766-2.664,52.248c-0.001,1.722,0.008,3.446,0.026,5.173c0.398,39.069,3.997,78.089,10.532,116.605
		c6.475,38.164,15.964,75.735,28.854,112.248c10.837,30.694,23.744,61.085,41.899,88.296c9.704,14.543,20.921,29.152,34.386,40.529
		c12.498,10.546,29.407,21.965,46.555,22.111h0.026c1.963,0,3.171-1.646,3.174-3.276c0.001-0.79-0.276-1.609-0.876-2.261
		C780.532,1716.123,774.862,1711.828,769.136,1707.626z"/>
	<path style="fill:#FFFFFF;" d="M622.482,1541.308l-0.582,0.224L622.482,1541.308c-3.725-9.658-6.953-19.506-9.659-29.497
		c-5.664-20.906-10.535-42.531-13.257-64.003c-0.261-2.106-1.981-3.282-3.612-3.267c-1.59-0.037-3.219,1.171-3.282,3.319
		c-0.175,4.019-0.266,8.015-0.266,11.993c0,18.813,2.039,37.215,6.931,55.667c2.852,10.762,6.302,21.365,10.333,31.743
		c2.083,5.364,4.314,10.677,6.675,15.925c2.246,4.964,3.935,10.347,8.973,13.548c0.95,0.602,1.955,0.879,2.925,0.878
		c3.104-0.021,5.709-2.716,5.948-5.904l0.03-0.869c-0.017-5.106-3.095-9.458-5.046-13.725
		C626.777,1551.916,624.542,1546.648,622.482,1541.308z"/>
	<path style="fill:#FFFFFF;" d="M920.479,1731.878l-0.992,0.068v0c-3.522,0.496-5.702,3.179-8.03,5.066
		c-1.981,1.625-4.092,3.103-6.263,4.491c-4.726,3.022-9.863,5.676-15.051,7.822c-5.139,2.127-10.567,3.663-16.035,4.737
		c-2.557,0.506-5.335,0.599-7.995,1.359c-3.059,0.878-6.013,1.122-9.251,1.215c-1.109,0.037-1.766,0.986-1.751,1.852
		c-0.023,0.687,0.447,1.468,1.303,1.672c5.6,1.441,11.03,2.754,16.857,2.754c0.496,0,0.994-0.01,1.497-0.029
		c6.382-0.252,12.748-1.317,18.884-3.061c6.1-1.734,11.861-4.274,17.298-7.521c2.865-1.712,5.593-3.615,8.227-5.647
		c2.738-2.125,5.982-4.22,6.759-8.223l0.123-1.271c0.004-1.571-0.609-2.924-1.627-3.851
		C923.417,1732.383,922.019,1731.877,920.479,1731.878z"/>
	<path style="fill:#FFFFFF;" d="M919.798,1768.128c-0.585-0.224-1.164-0.321-1.72-0.321c-1.783,0.011-3.265,0.942-4.654,1.667
		c-1.144,0.603-2.301,1.182-3.469,1.737c-2.347,1.115-4.74,2.108-7.184,2.996c-2.791,1.013-5.386,2.208-8.056,3.417
		c-2.445,1.107-4.982,1.936-7.589,2.691c-1.085,0.306-1.64,1.288-1.624,2.183c0.001,0.557,0.186,1.115,0.569,1.557
		c0.379,0.442,0.977,0.74,1.667,0.737c0.848,0.002,1.701,0.005,2.559,0.005c5.094-0.001,10.346-0.122,15.309-1.583
		c2.784-0.822,5.53-1.77,8.226-2.846c1.495-0.598,3.505-1.209,5.291-2.151c1.776-0.938,3.402-2.254,3.916-4.323l0.15-1.211
		C923.192,1770.568,921.766,1768.867,919.798,1768.128z"/>
	<path style="fill:#FFFFFF;" d="M493.455,1656.976c-9.957-29.582-18.928-59.376-25.815-89.819
		c-13.963-61.717-22.008-124.338-24.892-187.544c-1.636-35.874-1.999-71.833-3.947-107.693c-0.004-0.558-0.535-0.99-0.993-0.966
		c-0.461-0.016-0.965,0.359-1.027,0.922h-0.001c-3.413,27.211-4.849,54.743-4.849,82.322c0,37.167,2.607,74.419,6.497,111.085
		c6.666,62.839,18.584,126.201,40.741,185.607c12.335,33.073,27.24,66.292,46.814,95.792c0.311,0.484,0.829,0.76,1.322,0.752
		c0.856-0.007,1.59-0.698,1.601-1.627l-0.147-0.698C516.198,1715.948,503.582,1687.063,493.455,1656.976z"/>
	<path style="fill:#FFFFFF;" d="M316.689,1634.905c-7.092-20.203-13.142-40.771-18.123-61.595
		c-4.976-20.799-9.561-41.667-12.838-62.791c-1.698-10.946-3.15-21.952-4.435-32.958c-1.26-10.776-3.265-21.365-4.371-32.101
		c-0.066-0.754-0.723-1.238-1.323-1.218c-0.594-0.032-1.262,0.489-1.285,1.243c-0.622,9.995-1.505,19.947-1.505,29.987
		c0,1.487,0.019,2.977,0.062,4.469c0.305,10.708,1.049,21.369,2.097,32.023c2.107,21.419,5.057,42.886,9.782,63.911
		c4.787,21.303,10.684,42.356,17.669,63.043c6.961,20.612,14.271,42.098,25.421,60.959c1.277,2.171,3.461,3.129,5.586,3.121
		c3.41-0.007,6.93-2.395,6.957-6.162c0-0.683-0.12-1.399-0.375-2.135C332.996,1674.456,323.765,1655.067,316.689,1634.905z"/>
	<path style="fill:#FFFFFF;" d="M330.956,1581.745c-2.753-8.734-5.167-17.609-7.548-26.467c-2.465-9.168-5.663-18.045-7.926-27.201
		c-0.191-0.822-0.95-1.258-1.602-1.238l-1.165,0.422c-0.336,0.28-0.572,0.738-0.567,1.251l0,0.962c0,2.202-0.013,4.416-0.013,6.634
		c0,6.647,0.116,13.343,1.055,19.933c1.399,9.813,3.527,19.385,6.152,28.929c2.521,9.162,5.351,18.281,8.811,27.152
		c2.835,7.158,5.733,19.517,13.687,23.452c0.621,0.301,1.296,0.449,1.964,0.45c1.64,0.016,3.323-0.956,3.781-2.842
		c0.263-1.077,0.381-2.18,0.38-3.299c-0.022-7.601-5.317-15.96-7.72-22.208C336.921,1599.102,333.717,1590.504,330.956,1581.745z"/>
</g>
</svg>
