<?xml version="1.0" encoding="utf-8"?>
<!-- Generator: Adobe Illustrator 27.5.0, SVG Export Plug-In . SVG Version: 6.00 Build 0)  -->
<svg version="1.1" id="Layer_1" xmlns="http://www.w3.org/2000/svg" xmlns:xlink="http://www.w3.org/1999/xlink" x="0px" y="0px"
	 viewBox="0 0 277.853 201.084" style="enable-background:new 0 0 277.853 201.084;" xml:space="preserve">
<g>
	<g>
		<path style="fill:#FFFFFF;" d="M272.671,31.538c-0.853-1.196-2.17-2.011-3.561-2.226L134.806,6.892
			c-0.311-0.054-0.626-0.082-0.939-0.082c-2.645,0-4.908,1.893-5.379,4.499l-19.019,104.598l-98.093,39.866
			c-0.03,0.013-0.062,0.024-0.091,0.038c-0.192,0.082-0.392,0.186-0.581,0.297c-0.2,0.113-0.45,0.271-0.71,0.484
			c-0.173,0.141-0.395,0.354-0.548,0.516c-0.142,0.152-0.358,0.394-0.593,0.75c-0.124,0.189-0.255,0.431-0.356,0.643
			c-0.097,0.203-0.227,0.5-0.322,0.848c-0.067,0.233-0.119,0.475-0.15,0.716c-0.04,0.259-0.063,0.533-0.063,0.781v6.177
			c0,2.617,1.864,4.88,4.449,5.381l134.136,25.566c0.063,0.013,0.125,0.023,0.188,0.033c0.271,0.04,0.551,0.064,0.836,0.064
			c0.664,0,1.316-0.119,1.912-0.344l100.375-37.38c2.129-0.796,3.56-2.856,3.56-5.13v-5.707l20.179-113.806
			C273.861,34.267,273.529,32.758,272.671,31.538z"/>
		<path style="fill:#F1F1F1;" d="M272.325,31.193c-0.849-1.199-2.169-2.01-3.561-2.226L134.459,6.547
			c-0.309-0.054-0.625-0.082-0.938-0.082c-2.646,0-4.908,1.894-5.379,4.5l-19.019,104.597L11.03,155.429
			c-0.03,0.012-0.061,0.024-0.09,0.037c-0.192,0.085-0.392,0.188-0.581,0.298c-0.199,0.116-0.449,0.272-0.71,0.484
			c-0.173,0.142-0.396,0.353-0.549,0.515c-0.142,0.152-0.357,0.395-0.592,0.75c-0.124,0.189-0.257,0.432-0.356,0.645
			c-0.096,0.202-0.225,0.498-0.322,0.848c-0.065,0.232-0.115,0.475-0.149,0.715c-0.037,0.26-0.063,0.533-0.063,0.781v6.176
			c0,2.619,1.864,4.881,4.449,5.382l134.136,25.567c0.063,0.012,0.125,0.021,0.188,0.031c0.271,0.041,0.552,0.066,0.836,0.066
			c0.664,0,1.316-0.12,1.913-0.346l100.375-37.379c2.128-0.796,3.559-2.857,3.559-5.131v-5.706l20.18-113.806
			C273.516,33.921,273.188,32.411,272.325,31.193z"/>
		<path style="fill:#E2E2E2;" d="M271.98,30.848c-0.849-1.198-2.169-2.01-3.56-2.227L134.114,6.202
			c-0.309-0.054-0.625-0.082-0.938-0.082c-2.646,0-4.908,1.894-5.381,4.499l-19.017,104.599l-98.094,39.865
			c-0.031,0.014-0.061,0.025-0.09,0.039c-0.191,0.084-0.392,0.186-0.582,0.297c-0.198,0.115-0.448,0.273-0.709,0.484
			c-0.173,0.141-0.396,0.354-0.548,0.516c-0.144,0.152-0.358,0.394-0.593,0.75c-0.125,0.189-0.255,0.431-0.355,0.643
			c-0.097,0.203-0.225,0.5-0.322,0.848c-0.065,0.234-0.117,0.475-0.15,0.716c-0.037,0.259-0.063,0.533-0.063,0.781v6.177
			c0,2.617,1.864,4.88,4.45,5.381l134.135,25.566c0.063,0.013,0.126,0.023,0.188,0.033c0.271,0.04,0.552,0.064,0.837,0.064
			c0.663,0,1.314-0.119,1.911-0.345l100.376-37.379c2.128-0.796,3.559-2.856,3.559-5.13v-5.707l20.179-113.806
			C273.171,33.577,272.843,32.065,271.98,30.848z"/>
		<path style="fill:#D4D4D4;" d="M271.637,30.503c-0.85-1.199-2.171-2.011-3.561-2.226L133.77,5.857
			c-0.31-0.054-0.625-0.081-0.939-0.081c-2.645,0-4.908,1.893-5.38,4.498l-19.018,104.598L10.34,154.739
			c-0.03,0.011-0.061,0.024-0.09,0.037c-0.189,0.086-0.391,0.188-0.581,0.297c-0.199,0.115-0.449,0.273-0.71,0.484
			c-0.173,0.14-0.396,0.352-0.549,0.516c-0.143,0.152-0.357,0.394-0.592,0.75c-0.124,0.189-0.256,0.432-0.356,0.644
			c-0.095,0.203-0.222,0.499-0.32,0.847c-0.066,0.234-0.118,0.476-0.152,0.717c-0.036,0.258-0.063,0.533-0.063,0.781v6.176
			c0,2.619,1.864,4.88,4.45,5.382l134.135,25.566c0.063,0.013,0.125,0.022,0.189,0.032c0.271,0.04,0.551,0.065,0.836,0.065
			c0.665,0,1.315-0.12,1.911-0.346l100.377-37.379c2.128-0.796,3.56-2.856,3.56-5.13v-5.707l20.178-113.806
			C272.825,33.232,272.499,31.72,271.637,30.503z"/>
		<path style="fill:#C5C5C5;" d="M271.291,30.158c-0.848-1.198-2.17-2.01-3.561-2.226L133.425,5.512
			c-0.31-0.053-0.625-0.081-0.939-0.081c-2.645,0-4.908,1.894-5.38,4.499L108.09,114.527L9.996,154.394
			c-0.03,0.012-0.062,0.025-0.091,0.039c-0.191,0.082-0.391,0.186-0.581,0.297c-0.198,0.115-0.449,0.271-0.71,0.484
			c-0.174,0.14-0.395,0.354-0.549,0.516c-0.142,0.152-0.357,0.393-0.591,0.75c-0.124,0.189-0.257,0.431-0.358,0.643
			c-0.097,0.203-0.224,0.5-0.321,0.848c-0.065,0.232-0.117,0.475-0.151,0.715c-0.036,0.26-0.063,0.533-0.063,0.781v6.176
			c0,2.619,1.864,4.881,4.449,5.383l134.136,25.566c0.063,0.012,0.125,0.023,0.188,0.032c0.272,0.041,0.552,0.066,0.837,0.066
			c0.664,0,1.316-0.12,1.911-0.346l100.376-37.378c2.13-0.796,3.56-2.858,3.56-5.13v-5.707l20.18-113.807
			C272.481,32.887,272.153,31.376,271.291,30.158z"/>
		<path style="fill:#B7B7B7;" d="M270.947,29.814c-0.85-1.199-2.171-2.011-3.561-2.227L133.08,5.168
			c-0.309-0.054-0.625-0.082-0.938-0.082c-2.646,0-4.909,1.894-5.381,4.499l-19.017,104.598L9.651,154.05
			c-0.03,0.012-0.061,0.023-0.091,0.037c-0.191,0.082-0.392,0.188-0.582,0.298c-0.197,0.114-0.447,0.272-0.708,0.483
			c-0.174,0.142-0.398,0.354-0.55,0.516c-0.143,0.152-0.356,0.395-0.591,0.75c-0.125,0.189-0.256,0.432-0.356,0.643
			c-0.097,0.202-0.224,0.5-0.322,0.848c-0.064,0.233-0.117,0.475-0.151,0.716c-0.037,0.258-0.063,0.533-0.063,0.781v6.175
			c0,2.62,1.864,4.882,4.45,5.383l134.135,25.566c0.063,0.013,0.125,0.023,0.189,0.032c0.271,0.041,0.552,0.065,0.836,0.065
			c0.665,0,1.316-0.12,1.911-0.345l100.376-37.379c2.13-0.796,3.561-2.858,3.561-5.131v-5.706l20.179-113.807
			C272.136,32.542,271.81,31.031,270.947,29.814z"/>
		<path style="fill:#A8A8A8;" d="M270.602,29.469c-0.849-1.199-2.17-2.011-3.561-2.226L132.735,4.823
			c-0.311-0.055-0.625-0.082-0.939-0.082c-2.645,0-4.909,1.894-5.38,4.499l-19.019,104.598L9.306,153.704
			c-0.03,0.012-0.061,0.023-0.09,0.037c-0.192,0.084-0.392,0.188-0.582,0.299c-0.198,0.115-0.448,0.271-0.709,0.483
			c-0.174,0.141-0.398,0.354-0.549,0.516c-0.142,0.152-0.357,0.395-0.592,0.75c-0.124,0.189-0.256,0.432-0.357,0.645
			c-0.096,0.203-0.225,0.499-0.322,0.847c-0.064,0.233-0.115,0.476-0.149,0.716c-0.037,0.258-0.063,0.533-0.063,0.781v6.176
			c0,2.619,1.864,4.881,4.449,5.383L144.477,195.9c0.063,0.013,0.125,0.024,0.189,0.033c0.271,0.04,0.552,0.064,0.837,0.064
			c0.664,0,1.315-0.12,1.911-0.345l100.375-37.379c2.13-0.796,3.56-2.857,3.56-5.131v-5.706l20.18-113.807
			C271.791,32.197,271.463,30.686,270.602,29.469z"/>
		<path style="fill:#9A9A9A;" d="M270.257,29.124c-0.85-1.199-2.17-2.011-3.561-2.226L132.391,4.477
			c-0.31-0.055-0.625-0.082-0.939-0.082c-2.645,0-4.909,1.894-5.379,4.5l-19.02,104.597L8.96,153.358
			c-0.03,0.013-0.06,0.025-0.089,0.038c-0.192,0.081-0.392,0.188-0.582,0.298c-0.199,0.115-0.45,0.271-0.71,0.484
			c-0.173,0.14-0.397,0.353-0.548,0.515c-0.142,0.153-0.358,0.393-0.593,0.751c-0.124,0.189-0.255,0.432-0.355,0.644
			c-0.096,0.202-0.225,0.499-0.322,0.847c-0.065,0.232-0.116,0.476-0.15,0.717c-0.036,0.258-0.063,0.531-0.063,0.779v6.177
			c0,2.618,1.864,4.88,4.448,5.382l134.137,25.566c0.063,0.012,0.125,0.023,0.188,0.033c0.271,0.039,0.551,0.064,0.837,0.064
			c0.664,0,1.314-0.119,1.911-0.345l100.375-37.38c2.129-0.795,3.56-2.856,3.56-5.13v-5.706l20.179-113.807
			C271.445,31.852,271.118,30.341,270.257,29.124z"/>
		<path style="fill:#8B8B8B;" d="M269.912,28.779c-0.85-1.2-2.171-2.011-3.562-2.226L132.046,4.132
			c-0.31-0.054-0.625-0.082-0.939-0.082c-2.645,0-4.909,1.894-5.379,4.499l-19.02,104.598L8.615,153.014
			c-0.03,0.013-0.06,0.024-0.09,0.038c-0.191,0.084-0.392,0.188-0.581,0.297c-0.199,0.117-0.451,0.272-0.71,0.484
			c-0.173,0.141-0.397,0.354-0.548,0.516c-0.142,0.153-0.359,0.393-0.593,0.75c-0.124,0.189-0.255,0.432-0.355,0.644
			c-0.096,0.202-0.225,0.5-0.322,0.848c-0.065,0.233-0.116,0.477-0.15,0.716c-0.037,0.259-0.063,0.533-0.063,0.781v6.176
			c0,2.618,1.863,4.881,4.448,5.381l134.137,25.567c0.063,0.013,0.125,0.023,0.189,0.033c0.27,0.042,0.551,0.064,0.837,0.064
			c0.664,0,1.314-0.12,1.911-0.345L247.1,157.585c2.129-0.797,3.56-2.858,3.56-5.131v-5.707l20.178-113.806
			C271.1,31.507,270.773,29.996,269.912,28.779z"/>
		<path style="fill:#7D7D7D;" d="M269.567,28.434c-0.85-1.199-2.172-2.01-3.563-2.226L131.701,3.787
			c-0.311-0.054-0.625-0.081-0.939-0.081c-2.646,0-4.909,1.893-5.38,4.499l-19.018,104.596L8.271,152.669
			c-0.031,0.013-0.062,0.025-0.09,0.038c-0.192,0.085-0.393,0.188-0.582,0.298c-0.2,0.115-0.45,0.272-0.71,0.483
			c-0.174,0.141-0.396,0.354-0.549,0.516c-0.142,0.152-0.357,0.394-0.591,0.75c-0.125,0.189-0.257,0.431-0.358,0.644
			c-0.096,0.203-0.225,0.499-0.322,0.848c-0.066,0.232-0.115,0.476-0.149,0.715c-0.037,0.26-0.063,0.533-0.063,0.781v6.177
			c0,2.618,1.864,4.88,4.448,5.382l134.137,25.566c0.063,0.012,0.125,0.023,0.189,0.032c0.27,0.04,0.551,0.065,0.836,0.065
			c0.664,0,1.316-0.119,1.911-0.346l100.375-37.379c2.13-0.795,3.559-2.857,3.559-5.13v-5.706l20.179-113.807
			C270.756,31.163,270.429,29.651,269.567,28.434z"/>
		<path style="fill:#6E6E6E;" d="M269.222,28.089c-0.85-1.199-2.17-2.01-3.561-2.226L131.355,3.442
			c-0.309-0.054-0.625-0.082-0.938-0.082c-2.646,0-4.908,1.894-5.38,4.5l-19.019,104.598L7.926,152.324
			c-0.03,0.013-0.061,0.026-0.089,0.038c-0.192,0.085-0.393,0.186-0.583,0.297c-0.198,0.115-0.448,0.273-0.708,0.484
			c-0.174,0.141-0.398,0.352-0.55,0.516c-0.143,0.151-0.357,0.395-0.592,0.75c-0.124,0.189-0.255,0.432-0.357,0.643
			c-0.097,0.203-0.225,0.5-0.322,0.849c-0.065,0.233-0.115,0.475-0.149,0.715c-0.037,0.26-0.063,0.534-0.063,0.782v6.176
			c0,2.618,1.864,4.881,4.449,5.381l134.136,25.566c0.063,0.014,0.125,0.023,0.188,0.033c0.27,0.041,0.552,0.064,0.836,0.064
			c0.664,0,1.316-0.119,1.913-0.344l100.374-37.379c2.13-0.797,3.56-2.857,3.56-5.131v-5.707l20.179-113.806
			C270.411,30.817,270.083,29.306,269.222,28.089z"/>
		<path style="fill:#606060;" d="M268.876,27.744c-0.852-1.196-2.17-2.011-3.56-2.226L131.011,3.098
			c-0.31-0.054-0.625-0.082-0.939-0.082c-2.646,0-4.908,1.894-5.379,4.499l-19.019,104.597L7.581,151.98
			c-0.03,0.012-0.06,0.024-0.09,0.038c-0.192,0.082-0.393,0.186-0.582,0.298c-0.2,0.113-0.45,0.271-0.71,0.483
			c-0.173,0.14-0.396,0.354-0.548,0.515c-0.143,0.153-0.358,0.394-0.592,0.751c-0.124,0.189-0.256,0.431-0.356,0.644
			c-0.097,0.202-0.227,0.499-0.322,0.848c-0.067,0.232-0.119,0.475-0.15,0.715c-0.04,0.259-0.063,0.533-0.063,0.781v6.176
			c0,2.619,1.864,4.881,4.449,5.383l134.136,25.566c0.063,0.012,0.125,0.022,0.189,0.031c0.27,0.041,0.551,0.066,0.836,0.066
			c0.664,0,1.316-0.119,1.912-0.346l100.375-37.379c2.129-0.795,3.56-2.857,3.56-5.131v-5.705l20.179-113.807
			C270.066,30.473,269.734,28.964,268.876,27.744z"/>
	</g>
	<path style="fill:#FFFFFF;" d="M268.876,27.744c-0.852-1.196-2.17-2.011-3.56-2.226L131.011,3.098
		c-0.31-0.054-0.625-0.082-0.939-0.082c-2.646,0-4.908,1.894-5.379,4.499l-19.019,104.597L7.581,151.98
		c-0.03,0.012-0.06,0.024-0.09,0.038c-0.192,0.082-0.393,0.186-0.582,0.298c-0.2,0.113-0.45,0.271-0.71,0.483
		c-0.173,0.14-0.396,0.354-0.548,0.515c-0.143,0.153-0.358,0.394-0.592,0.751c-0.124,0.189-0.256,0.431-0.356,0.644
		c-0.097,0.202-0.227,0.499-0.322,0.848c-0.067,0.232-0.119,0.475-0.15,0.715c-0.04,0.259-0.063,0.533-0.063,0.781v6.176
		c0,2.619,1.864,4.881,4.449,5.383l134.136,25.566c0.063,0.012,0.125,0.022,0.189,0.031c0.27,0.041,0.551,0.066,0.836,0.066
		c0.664,0,1.316-0.119,1.912-0.346l100.375-37.379c2.129-0.795,3.56-2.857,3.56-5.131v-5.705l20.179-113.807
		C270.066,30.473,269.734,28.964,268.876,27.744z"/>
	<g>
		<g>
			<polygon style="fill:#898989;" points="9.644,163.227 9.644,157.052 110.521,122.231 244.146,145.243 244.146,151.419 
				143.777,188.795 			"/>
			<path style="fill:#5E2C00;" d="M143.777,189.424c-0.039,0-0.078-0.005-0.116-0.011L9.525,163.846
				c-0.293-0.057-0.508-0.314-0.508-0.618v-6.176c0-0.267,0.171-0.506,0.423-0.593l100.876-34.818
				c0.099-0.037,0.205-0.046,0.311-0.026l133.624,23.01c0.303,0.053,0.523,0.315,0.523,0.619v6.176c0,0.26-0.164,0.497-0.407,0.588
				l-100.371,37.377C143.927,189.411,143.854,189.424,143.777,189.424z M10.272,162.709l133.453,25.439l99.793-37.164v-5.213
				l-132.943-22.893L10.272,157.499V162.709z"/>
		</g>
		<g>
			<polygon style="fill:#474747;" points="143.52,127.915 143.52,188.743 143.777,188.795 244.146,151.419 244.146,145.243 			"/>
			<path style="fill:#5E2C00;" d="M143.777,189.424c-0.041,0-0.08-0.005-0.12-0.013l-0.259-0.052
				c-0.295-0.059-0.506-0.314-0.506-0.616v-60.828c0-0.187,0.082-0.361,0.224-0.48c0.141-0.119,0.329-0.172,0.511-0.14
				l100.624,17.329c0.303,0.053,0.523,0.315,0.523,0.619v6.176c0,0.26-0.164,0.497-0.407,0.588l-100.371,37.377
				C143.927,189.411,143.854,189.424,143.777,189.424z M144.148,128.659v59.33l99.37-37.006v-5.213L144.148,128.659z"/>
		</g>
		<g>
			<polygon style="fill:#898989;" points="130.083,8.497 110.521,116.058 244.146,145.243 264.417,30.92 			"/>
			<path style="fill:#5E2C00;" d="M244.146,145.868c-0.047,0-0.09-0.004-0.134-0.015L110.388,116.67
				c-0.331-0.073-0.542-0.394-0.482-0.726L129.464,8.383c0.061-0.34,0.386-0.57,0.721-0.506l134.333,22.425
				c0.164,0.025,0.311,0.119,0.409,0.257c0.097,0.137,0.136,0.307,0.105,0.472l-20.27,114.321c-0.03,0.167-0.127,0.318-0.269,0.411
				C244.392,145.833,244.27,145.868,244.146,145.868z M111.247,115.573l132.394,28.916l20.047-113.054L130.589,9.217
				L111.247,115.573z"/>
		</g>
		<g>
			<polygon style="fill:#474747;" points="133.899,14.201 115.918,111.14 239.831,139.319 258.554,34.602 			"/>
			<path style="fill:#5E2C00;" d="M239.831,139.948c-0.048,0-0.093-0.008-0.14-0.018l-123.913-28.177
				c-0.326-0.075-0.538-0.394-0.475-0.726l17.978-96.943c0.062-0.335,0.384-0.563,0.718-0.504l124.659,20.401
				c0.162,0.028,0.311,0.119,0.407,0.257c0.096,0.137,0.133,0.307,0.107,0.473l-18.726,104.716c-0.03,0.171-0.129,0.318-0.271,0.414
				C240.074,139.912,239.953,139.948,239.831,139.948z M116.646,110.663l122.684,27.9l18.498-103.445l-123.422-20.2L116.646,110.663
				z"/>
		</g>
		<path style="fill:#434343;" d="M198.76,24.815l-8.878-1.451c-21.28,10.801-42.621,21.479-63.73,32.602l-1.522,8.188
			C149.203,50.779,173.609,37.063,198.76,24.815z"/>
		<path style="fill:#434343;" d="M249.517,85.147l5.585-31.24c-38.18,20.188-75.472,42.037-113.159,63.153l39.421,8.963
			C204.147,112.509,227.03,99.144,249.517,85.147z"/>
		<g>
			<polygon style="fill:#898989;" points="9.644,157.052 110.521,116.058 244.146,145.243 143.777,182.618 			"/>
			<path style="fill:#5E2C00;" d="M143.777,183.247c-0.039,0-0.078-0.005-0.116-0.011L9.525,157.67
				c-0.272-0.056-0.477-0.278-0.504-0.554c-0.028-0.278,0.132-0.539,0.386-0.645l100.876-40.997c0.123-0.046,0.248-0.057,0.372-0.03
				l133.624,29.186c0.271,0.061,0.473,0.289,0.495,0.568c0.015,0.276-0.148,0.536-0.407,0.633l-100.371,37.377
				C143.927,183.234,143.854,183.247,143.777,183.247z M11.851,156.834l131.875,25.137l98.2-36.571l-131.349-28.688L11.851,156.834z
				"/>
		</g>
		<g>
			<polygon style="fill:#5D5D5D;" points="65.698,164.554 91.111,154.226 124.77,161.578 99.487,170.995 			"/>
			<path style="fill:#5E2C00;" d="M99.487,171.623c-0.041,0-0.078-0.006-0.119-0.012l-33.786-6.439
				c-0.273-0.055-0.481-0.278-0.508-0.554c-0.028-0.277,0.132-0.537,0.39-0.644l25.412-10.329c0.117-0.045,0.249-0.057,0.369-0.03
				l33.658,7.351c0.273,0.061,0.474,0.29,0.493,0.568c0.021,0.277-0.146,0.537-0.408,0.635l-25.283,9.414
				C99.632,171.61,99.561,171.623,99.487,171.623z M67.904,164.339l31.527,6.006l23.119-8.609l-31.382-6.854L67.904,164.339z"/>
		</g>
		<g>
			<g>
				<polygon style="fill:#5D5D5D;" points="126.195,125.659 113.57,122.838 105.289,126.531 117.544,129.46 				"/>
				<path style="fill:#5E2C00;" d="M117.544,130.087c-0.046,0-0.098-0.008-0.145-0.018l-12.256-2.93
					c-0.262-0.061-0.456-0.285-0.48-0.552c-0.023-0.269,0.124-0.521,0.369-0.631l8.281-3.692c0.122-0.055,0.261-0.07,0.395-0.039
					l12.623,2.819c0.266,0.062,0.459,0.282,0.487,0.552c0.026,0.271-0.124,0.527-0.371,0.637l-8.65,3.799
					C117.717,130.066,117.63,130.087,117.544,130.087z M107.231,126.351l10.255,2.448l6.706-2.946l-10.556-2.358L107.231,126.351z"
					/>
			</g>
			<g>
				<polygon style="fill:#5D5D5D;" points="166.588,141.182 176.774,136.968 164.118,134.137 154.327,138.249 				"/>
				<path style="fill:#5E2C00;" d="M166.588,141.809c-0.052,0-0.099-0.007-0.146-0.017l-12.258-2.934
					c-0.266-0.063-0.458-0.287-0.479-0.557c-0.025-0.271,0.131-0.525,0.381-0.631l9.793-4.115c0.118-0.051,0.249-0.061,0.381-0.031
					l12.656,2.832c0.265,0.06,0.466,0.287,0.487,0.557c0.023,0.273-0.133,0.529-0.384,0.635l-10.192,4.211
					C166.75,141.794,166.666,141.809,166.588,141.809z M156.34,138.086l10.193,2.437l8.168-3.375l-10.521-2.355L156.34,138.086z"/>
			</g>
			<g>
				<polygon style="fill:#5D5D5D;" points="129.808,132.39 138.831,128.48 126.195,125.659 117.544,129.46 				"/>
				<path style="fill:#5E2C00;" d="M129.808,133.017c-0.05,0-0.099-0.006-0.148-0.018l-12.261-2.93
					c-0.262-0.062-0.456-0.285-0.478-0.555c-0.026-0.269,0.125-0.521,0.369-0.631l8.651-3.8c0.121-0.052,0.257-0.067,0.389-0.039
					l12.637,2.821c0.265,0.061,0.463,0.285,0.488,0.557c0.023,0.27-0.128,0.527-0.378,0.633l-9.02,3.909
					C129.975,132.999,129.893,133.017,129.808,133.017z M119.505,129.284l10.244,2.447l7.062-3.059l-10.555-2.357L119.505,129.284z"
					/>
			</g>
			<g>
				<polygon style="fill:#5D5D5D;" points="117.544,129.46 105.289,126.531 94.884,131.173 107.041,134.075 				"/>
				<path style="fill:#5E2C00;" d="M107.041,134.704c-0.049,0-0.099-0.006-0.147-0.018l-12.157-2.906
					c-0.259-0.061-0.454-0.281-0.476-0.551c-0.027-0.268,0.124-0.522,0.367-0.631l10.404-4.642c0.129-0.054,0.27-0.067,0.402-0.036
					l12.258,2.928c0.262,0.063,0.454,0.283,0.476,0.553c0.025,0.27-0.126,0.521-0.371,0.631l-10.504,4.617
					C107.214,134.685,107.129,134.704,107.041,134.704z M96.829,130.991l10.153,2.426l8.602-3.781l-10.233-2.445L96.829,130.991z"/>
			</g>
			<g>
				<polygon style="fill:#5D5D5D;" points="107.041,134.075 94.884,131.173 85.453,135.377 97.521,138.261 				"/>
				<path style="fill:#5E2C00;" d="M97.521,138.886c-0.051,0-0.1-0.004-0.146-0.018l-12.068-2.883
					c-0.261-0.063-0.453-0.283-0.479-0.552c-0.023-0.267,0.125-0.52,0.373-0.631l9.427-4.204c0.127-0.057,0.271-0.068,0.402-0.037
					l12.155,2.904c0.264,0.063,0.456,0.283,0.481,0.553c0.022,0.27-0.127,0.521-0.374,0.631l-9.52,4.184
					C97.694,138.868,97.607,138.886,97.521,138.886z M87.399,135.194l10.062,2.404l7.618-3.348l-10.134-2.422L87.399,135.194z"/>
			</g>
			<g>
				<polygon style="fill:#5D5D5D;" points="178.85,144.114 189.442,139.8 176.774,136.968 166.588,141.182 				"/>
				<path style="fill:#5E2C00;" d="M178.85,144.737c-0.051,0-0.099-0.004-0.147-0.015l-12.262-2.931
					c-0.266-0.065-0.458-0.29-0.48-0.561c-0.022-0.273,0.134-0.527,0.386-0.631l10.189-4.213c0.12-0.051,0.249-0.061,0.379-0.031
					l12.667,2.832c0.265,0.059,0.464,0.286,0.488,0.559c0.022,0.275-0.138,0.531-0.39,0.631l-10.597,4.314
					C179.011,144.725,178.932,144.737,178.85,144.737z M168.615,141.02l10.185,2.435l8.551-3.479l-10.517-2.353L168.615,141.02z"/>
			</g>
			<g>
				<polygon style="fill:#5D5D5D;" points="154.327,138.249 164.118,134.137 151.474,131.311 142.063,135.321 				"/>
				<path style="fill:#5E2C00;" d="M154.327,138.876c-0.047,0-0.099-0.006-0.144-0.018l-12.263-2.927
					c-0.264-0.063-0.457-0.288-0.479-0.558c-0.024-0.269,0.129-0.523,0.379-0.628l9.405-4.013c0.121-0.051,0.252-0.064,0.383-0.036
					l12.65,2.827c0.265,0.059,0.462,0.283,0.485,0.554c0.024,0.274-0.131,0.529-0.384,0.635l-9.789,4.116
					C154.494,138.86,154.411,138.876,154.327,138.876z M144.059,135.151l10.216,2.439l7.789-3.271l-10.532-2.352L144.059,135.151z"
					/>
			</g>
			<g>
				<polygon style="fill:#5D5D5D;" points="142.063,135.321 151.474,131.311 138.831,128.48 129.808,132.39 				"/>
				<path style="fill:#5E2C00;" d="M142.063,135.95c-0.046,0-0.094-0.007-0.143-0.019l-12.261-2.933
					c-0.262-0.063-0.454-0.285-0.477-0.557c-0.026-0.268,0.128-0.521,0.375-0.629l9.023-3.908c0.121-0.052,0.252-0.066,0.386-0.039
					l12.641,2.831c0.266,0.059,0.465,0.282,0.489,0.558c0.025,0.271-0.13,0.525-0.379,0.633l-9.405,4.01
					C142.234,135.932,142.151,135.95,142.063,135.95z M131.783,132.217l10.229,2.448l7.422-3.166l-10.541-2.363L131.783,132.217z"/>
			</g>
			<g>
				<polygon style="fill:#5D5D5D;" points="145.763,149.79 135.371,154.085 147.319,156.942 157.82,152.672 				"/>
				<path style="fill:#5E2C00;" d="M147.319,157.571c-0.047,0-0.099-0.006-0.146-0.018l-11.947-2.854
					c-0.265-0.066-0.46-0.29-0.48-0.564c-0.022-0.27,0.134-0.523,0.384-0.629l10.395-4.297c0.123-0.049,0.257-0.063,0.386-0.029
					l12.054,2.879c0.266,0.064,0.458,0.292,0.48,0.563c0.018,0.275-0.139,0.527-0.391,0.629l-10.497,4.273
					C147.482,157.556,147.401,157.571,147.319,157.571z M137.401,153.927l9.868,2.359l8.502-3.459l-9.958-2.377L137.401,153.927z"/>
			</g>
			<g>
				<polygon style="fill:#5D5D5D;" points="133.704,146.907 123.412,151.229 135.371,154.085 145.763,149.79 				"/>
				<path style="fill:#5E2C00;" d="M135.371,154.714c-0.049,0-0.097-0.006-0.145-0.015l-11.958-2.858
					c-0.266-0.064-0.456-0.291-0.479-0.562c-0.022-0.269,0.131-0.522,0.382-0.629l10.291-4.321c0.126-0.051,0.261-0.061,0.391-0.032
					l12.058,2.884c0.265,0.064,0.457,0.289,0.478,0.559c0.023,0.273-0.132,0.527-0.383,0.631l-10.395,4.297
					C135.534,154.701,135.454,154.714,135.371,154.714z M125.428,151.065l9.893,2.364l8.414-3.477l-9.974-2.387L125.428,151.065z"/>
			</g>
			<g>
				<polygon style="fill:#5D5D5D;" points="157.82,152.672 147.319,156.942 159.267,159.8 169.872,155.55 				"/>
				<path style="fill:#5E2C00;" d="M159.267,160.427c-0.048,0-0.096-0.008-0.145-0.016l-11.948-2.857
					c-0.264-0.064-0.461-0.291-0.479-0.563c-0.021-0.272,0.138-0.526,0.387-0.629l10.5-4.273c0.122-0.048,0.254-0.057,0.383-0.029
					l12.052,2.882c0.266,0.064,0.461,0.29,0.48,0.563c0.02,0.271-0.14,0.523-0.391,0.627l-10.605,4.249
					C159.425,160.411,159.348,160.427,159.267,160.427z M149.369,156.786l9.85,2.357l8.586-3.441l-9.936-2.376L149.369,156.786z"/>
			</g>
			<g>
				<polygon style="fill:#5D5D5D;" points="121.65,144.025 111.457,148.373 123.412,151.229 133.704,146.907 				"/>
				<path style="fill:#5E2C00;" d="M123.412,151.855c-0.047,0-0.099-0.008-0.144-0.015l-11.959-2.857
					c-0.263-0.063-0.457-0.288-0.479-0.559c-0.023-0.27,0.132-0.523,0.38-0.629l10.193-4.347c0.126-0.051,0.265-0.063,0.394-0.032
					l12.056,2.88c0.262,0.063,0.456,0.288,0.48,0.561c0.02,0.269-0.134,0.522-0.384,0.628l-10.292,4.32
					C123.579,151.843,123.496,151.855,123.412,151.855z M113.449,148.202l9.911,2.367l8.333-3.498l-9.988-2.387L113.449,148.202z"/>
			</g>
			<g>
				<polygon style="fill:#5D5D5D;" points="97.521,138.261 87.528,142.651 99.491,145.515 109.587,141.142 				"/>
				<path style="fill:#5E2C00;" d="M99.491,146.142c-0.049,0-0.098-0.008-0.145-0.02l-11.966-2.86
					c-0.262-0.063-0.454-0.284-0.479-0.554c-0.022-0.267,0.126-0.52,0.374-0.631l9.992-4.393c0.125-0.055,0.27-0.066,0.398-0.036
					l12.065,2.886c0.262,0.064,0.457,0.283,0.479,0.557c0.023,0.268-0.128,0.521-0.376,0.627l-10.092,4.373
					C99.664,146.122,99.578,146.142,99.491,146.142z M89.485,142.476l9.948,2.379l8.175-3.539l-10.03-2.398L89.485,142.476z"/>
			</g>
			<g>
				<polygon style="fill:#5D5D5D;" points="85.453,135.377 75.554,139.789 87.528,142.651 97.521,138.261 				"/>
				<path style="fill:#5E2C00;" d="M87.528,143.278c-0.051,0-0.099-0.006-0.147-0.017l-11.975-2.86
					c-0.259-0.064-0.451-0.285-0.477-0.552c-0.024-0.267,0.124-0.524,0.369-0.633l9.902-4.414c0.126-0.056,0.269-0.068,0.4-0.038
					l12.064,2.884c0.262,0.062,0.453,0.284,0.48,0.556c0.025,0.267-0.127,0.52-0.373,0.629l-9.993,4.395
					C87.698,143.262,87.613,143.278,87.528,143.278z M77.498,139.61l9.969,2.384l8.094-3.559l-10.044-2.399L77.498,139.61z"/>
			</g>
			<g>
				<polygon style="fill:#5D5D5D;" points="109.587,141.142 99.491,145.515 111.457,148.373 121.65,144.025 				"/>
				<path style="fill:#5E2C00;" d="M111.457,149.001c-0.052,0-0.1-0.008-0.147-0.018l-11.963-2.861
					c-0.262-0.061-0.456-0.285-0.478-0.553c-0.025-0.27,0.127-0.523,0.376-0.631l10.092-4.369c0.123-0.055,0.263-0.064,0.395-0.035
					l12.065,2.883c0.263,0.06,0.454,0.288,0.477,0.557c0.024,0.271-0.129,0.523-0.379,0.629l-10.193,4.347
					C111.624,148.983,111.54,149.001,111.457,149.001z M101.471,145.342l9.931,2.374l8.253-3.521l-10.012-2.391L101.471,145.342z"/>
			</g>
			<g>
				<polygon style="fill:#5D5D5D;" points="157.82,152.672 169.872,155.55 179.967,151.507 167.818,148.602 				"/>
				<path style="fill:#5E2C00;" d="M169.872,156.177c-0.05,0-0.099-0.008-0.146-0.016l-12.055-2.881
					c-0.265-0.063-0.458-0.292-0.479-0.561c-0.021-0.271,0.137-0.525,0.389-0.631l9.999-4.068c0.123-0.047,0.255-0.059,0.38-0.027
					l12.154,2.905c0.264,0.063,0.459,0.288,0.479,0.563c0.02,0.273-0.138,0.524-0.392,0.627l-10.097,4.043
					C170.027,156.163,169.95,156.177,169.872,156.177z M159.865,152.517l9.958,2.377l8.079-3.235l-10.034-2.4L159.865,152.517z"/>
			</g>
			<g>
				<polygon style="fill:#5D5D5D;" points="131.354,139.886 142.063,135.321 129.808,132.39 119.197,136.983 				"/>
				<path style="fill:#5E2C00;" d="M131.354,140.515c-0.049,0-0.099-0.008-0.148-0.018l-12.155-2.906
					c-0.262-0.061-0.454-0.285-0.479-0.551c-0.022-0.27,0.127-0.525,0.378-0.633l10.61-4.594c0.123-0.051,0.263-0.065,0.394-0.035
					l12.258,2.932c0.264,0.064,0.458,0.289,0.48,0.559c0.022,0.271-0.131,0.523-0.378,0.629l-10.713,4.566
					C131.521,140.497,131.438,140.515,131.354,140.515z M121.175,136.81l10.123,2.419l8.773-3.738l-10.206-2.442L121.175,136.81z"/>
			</g>
			<g>
				<polygon style="fill:#5D5D5D;" points="129.808,132.39 117.544,129.46 107.041,134.075 119.197,136.983 				"/>
				<path style="fill:#5E2C00;" d="M119.197,137.611c-0.049,0-0.098-0.007-0.146-0.02l-12.157-2.904
					c-0.259-0.064-0.452-0.285-0.476-0.555c-0.026-0.27,0.126-0.521,0.37-0.63l10.503-4.618c0.127-0.054,0.27-0.064,0.401-0.035
					l12.262,2.93c0.261,0.064,0.456,0.287,0.477,0.557c0.026,0.27-0.127,0.523-0.377,0.63l-10.609,4.595
					C119.369,137.591,119.282,137.611,119.197,137.611z M109.001,133.899l10.141,2.425l8.688-3.761l-10.228-2.445L109.001,133.899z"
					/>
			</g>
			<g>
				<polygon style="fill:#5D5D5D;" points="107.041,134.075 97.521,138.261 109.587,141.142 119.197,136.983 				"/>
				<path style="fill:#5E2C00;" d="M109.587,141.77c-0.05,0-0.099-0.006-0.146-0.017l-12.064-2.886
					c-0.264-0.063-0.456-0.284-0.481-0.555c-0.022-0.267,0.126-0.524,0.373-0.629l9.521-4.183c0.126-0.055,0.266-0.067,0.397-0.036
					l12.159,2.906c0.264,0.064,0.453,0.287,0.479,0.559c0.022,0.267-0.129,0.521-0.379,0.629l-9.611,4.158
					C109.756,141.754,109.671,141.77,109.587,141.77z M99.481,138.082l10.047,2.404l7.692-3.331l-10.122-2.421L99.481,138.082z"/>
			</g>
			<g>
				<polygon style="fill:#5D5D5D;" points="143.511,142.792 154.327,138.249 142.063,135.321 131.354,139.886 				"/>
				<path style="fill:#5E2C00;" d="M143.511,143.417c-0.049,0-0.099-0.006-0.147-0.018l-12.157-2.902
					c-0.262-0.063-0.457-0.289-0.477-0.559c-0.025-0.267,0.129-0.523,0.379-0.629l10.712-4.564c0.122-0.054,0.263-0.064,0.392-0.036
					l12.263,2.93c0.263,0.062,0.457,0.289,0.48,0.559c0.02,0.273-0.134,0.526-0.383,0.631l-10.817,4.541
					C143.677,143.401,143.594,143.417,143.511,143.417z M133.35,139.72l10.107,2.413l8.857-3.722l-10.195-2.432L133.35,139.72z"/>
			</g>
			<g>
				<polygon style="fill:#5D5D5D;" points="227.638,148.337 235.969,145.243 222.711,142.351 214.801,145.471 				"/>
				<path style="fill:#5E2C00;" d="M227.638,148.964c-0.045,0-0.091-0.006-0.137-0.015l-12.837-2.868
					c-0.267-0.059-0.466-0.288-0.487-0.563c-0.021-0.275,0.14-0.531,0.394-0.631l7.908-3.121c0.116-0.045,0.243-0.055,0.363-0.027
					l13.261,2.891c0.273,0.061,0.473,0.289,0.493,0.568c0.018,0.276-0.148,0.536-0.405,0.633l-8.332,3.096
					C227.786,148.949,227.713,148.964,227.638,148.964z M216.934,145.302l10.661,2.382l6.152-2.284l-10.983-2.395L216.934,145.302z"
					/>
			</g>
			<g>
				<polygon style="fill:#5D5D5D;" points="155.663,145.698 166.588,141.182 154.327,138.249 143.511,142.792 				"/>
				<path style="fill:#5E2C00;" d="M155.663,146.327c-0.048,0-0.099-0.008-0.145-0.018l-12.154-2.91
					c-0.262-0.064-0.454-0.289-0.477-0.559c-0.024-0.269,0.131-0.522,0.381-0.627l10.817-4.543c0.125-0.051,0.263-0.06,0.39-0.031
					l12.258,2.93c0.265,0.064,0.46,0.29,0.479,0.563c0.022,0.271-0.134,0.523-0.386,0.627l-10.923,4.52
					C155.825,146.31,155.744,146.327,155.663,146.327z M145.52,142.625l10.094,2.414l8.944-3.696l-10.175-2.435L145.52,142.625z"/>
			</g>
			<g>
				<polygon style="fill:#5D5D5D;" points="167.818,148.602 178.85,144.114 166.588,141.182 155.663,145.698 				"/>
				<path style="fill:#5E2C00;" d="M167.818,149.227c-0.053,0-0.099-0.004-0.146-0.016l-12.154-2.902
					c-0.266-0.064-0.456-0.291-0.478-0.563c-0.023-0.273,0.131-0.524,0.383-0.629l10.925-4.518c0.12-0.052,0.255-0.06,0.385-0.031
					l12.262,2.932c0.266,0.064,0.459,0.291,0.48,0.563c0.02,0.27-0.137,0.524-0.391,0.629l-11.031,4.492
					C167.979,149.212,167.897,149.227,167.818,149.227z M157.693,145.539l10.072,2.406l9.037-3.678l-10.165-2.431L157.693,145.539z"
					/>
			</g>
			<g>
				<polygon style="fill:#5D5D5D;" points="143.511,142.792 133.704,146.907 145.763,149.79 155.663,145.698 				"/>
				<path style="fill:#5E2C00;" d="M145.763,150.417c-0.048,0-0.098-0.008-0.146-0.017l-12.055-2.882
					c-0.267-0.066-0.458-0.289-0.479-0.559c-0.023-0.271,0.13-0.525,0.38-0.631l9.806-4.115c0.123-0.053,0.261-0.063,0.39-0.033
					l12.152,2.907c0.263,0.063,0.458,0.292,0.478,0.563c0.023,0.269-0.134,0.522-0.384,0.627l-9.898,4.092
					C145.927,150.4,145.847,150.417,145.763,150.417z M135.717,146.742l9.996,2.389l7.923-3.271l-10.07-2.41L135.717,146.742z"/>
			</g>
			<g>
				<polygon style="fill:#5D5D5D;" points="159.267,159.8 171.208,162.652 181.917,158.431 169.872,155.55 				"/>
				<path style="fill:#5E2C00;" d="M171.208,163.279c-0.052,0-0.099-0.005-0.147-0.015l-11.939-2.854
					c-0.268-0.066-0.46-0.293-0.483-0.564c-0.016-0.275,0.143-0.529,0.394-0.629l10.605-4.25c0.119-0.051,0.252-0.057,0.379-0.026
					l12.046,2.88c0.266,0.063,0.462,0.293,0.48,0.566c0.02,0.271-0.14,0.525-0.395,0.627l-10.71,4.221
					C171.365,163.269,171.286,163.279,171.208,163.279z M161.333,159.648l9.826,2.351l8.674-3.42l-9.917-2.372L161.333,159.648z"/>
			</g>
			<g>
				<polygon style="fill:#5D5D5D;" points="119.197,136.983 109.587,141.142 121.65,144.025 131.354,139.886 				"/>
				<path style="fill:#5E2C00;" d="M121.65,144.654c-0.05,0-0.099-0.006-0.146-0.017l-12.063-2.884
					c-0.263-0.061-0.457-0.286-0.479-0.558c-0.022-0.267,0.129-0.521,0.376-0.627l9.613-4.162c0.124-0.055,0.262-0.066,0.395-0.035
					l12.155,2.906c0.263,0.061,0.457,0.285,0.477,0.555c0.024,0.273-0.13,0.524-0.377,0.631l-9.706,4.139
					C121.817,144.638,121.733,144.654,121.65,144.654z M111.563,140.972l10.032,2.398l7.767-3.314l-10.105-2.413L111.563,140.972z"
					/>
			</g>
			<g>
				<polygon style="fill:#5D5D5D;" points="167.818,148.602 179.967,151.507 191.112,147.044 178.85,144.114 				"/>
				<path style="fill:#5E2C00;" d="M179.967,152.134c-0.048,0-0.097-0.006-0.145-0.018l-12.15-2.904
					c-0.265-0.066-0.46-0.291-0.479-0.563c-0.021-0.272,0.136-0.524,0.388-0.629l11.033-4.49c0.121-0.049,0.254-0.059,0.381-0.029
					l12.266,2.934c0.265,0.061,0.459,0.291,0.479,0.564c0.02,0.271-0.138,0.525-0.39,0.628l-11.148,4.462
					C180.127,152.12,180.048,152.134,179.967,152.134z M169.865,148.447l10.054,2.402l9.13-3.655l-10.15-2.426L169.865,148.447z"/>
			</g>
			<g>
				<polygon style="fill:#5D5D5D;" points="155.663,145.698 145.763,149.79 157.82,152.672 167.818,148.602 				"/>
				<path style="fill:#5E2C00;" d="M157.82,153.298c-0.051,0-0.099-0.004-0.149-0.018l-12.055-2.88
					c-0.263-0.064-0.457-0.288-0.478-0.56c-0.021-0.273,0.135-0.525,0.386-0.631l9.898-4.092c0.123-0.053,0.26-0.061,0.387-0.03
					l12.15,2.905c0.268,0.063,0.463,0.291,0.482,0.561c0.02,0.271-0.138,0.524-0.39,0.631l-9.999,4.066
					C157.977,153.282,157.9,153.298,157.82,153.298z M147.793,149.632l9.977,2.383l8-3.257l-10.056-2.402L147.793,149.632z"/>
			</g>
			<g>
				<polygon style="fill:#5D5D5D;" points="131.354,139.886 121.65,144.025 133.704,146.907 143.511,142.792 				"/>
				<path style="fill:#5E2C00;" d="M133.704,147.536c-0.048,0-0.098-0.008-0.143-0.018l-12.058-2.881
					c-0.263-0.064-0.458-0.289-0.48-0.558c-0.022-0.27,0.131-0.524,0.38-0.631l9.705-4.14c0.124-0.051,0.263-0.063,0.392-0.031
					l12.157,2.902c0.263,0.064,0.458,0.289,0.48,0.559c0.02,0.27-0.136,0.524-0.383,0.631l-9.806,4.115
					C133.872,147.519,133.788,147.536,133.704,147.536z M123.643,143.856l10.01,2.391l7.847-3.292l-10.09-2.41L123.643,143.856z"/>
			</g>
			<g>
				<polygon style="fill:#5D5D5D;" points="191.112,147.044 202.121,142.631 189.442,139.8 178.85,144.114 				"/>
				<path style="fill:#5E2C00;" d="M191.112,147.671c-0.048,0-0.097-0.006-0.145-0.018l-12.265-2.931
					c-0.264-0.066-0.459-0.292-0.48-0.564c-0.02-0.27,0.137-0.527,0.391-0.629l10.595-4.31c0.118-0.05,0.247-0.059,0.374-0.032
					l12.676,2.83c0.268,0.061,0.467,0.289,0.488,0.563c0.022,0.273-0.138,0.529-0.392,0.633l-11.006,4.413
					C191.27,147.655,191.193,147.671,191.112,147.671z M180.897,143.955l10.169,2.431l8.943-3.584l-10.511-2.346L180.897,143.955z"
					/>
			</g>
			<g>
				<polygon style="fill:#5D5D5D;" points="192.117,154.411 203.779,157.196 215.455,152.861 203.375,149.972 				"/>
				<path style="fill:#5E2C00;" d="M203.779,157.823c-0.048,0-0.096-0.004-0.144-0.016l-11.665-2.787
					c-0.263-0.064-0.459-0.291-0.48-0.568c-0.018-0.271,0.143-0.523,0.396-0.625l11.257-4.44c0.118-0.046,0.252-0.052,0.377-0.024
					l12.081,2.887c0.269,0.065,0.461,0.298,0.48,0.574c0.016,0.275-0.146,0.529-0.407,0.625l-11.678,4.337
					C203.928,157.81,203.854,157.823,203.779,157.823z M194.201,154.263l9.541,2.279l9.561-3.554l-9.88-2.362L194.201,154.263z"/>
			</g>
			<g>
				<polygon style="fill:#5D5D5D;" points="64.131,137.061 53.189,141.442 65.438,144.302 75.554,139.789 				"/>
				<path style="fill:#5E2C00;" d="M65.438,144.927c-0.045,0-0.094-0.004-0.142-0.015l-12.247-2.858
					c-0.268-0.061-0.462-0.291-0.482-0.563c-0.021-0.272,0.136-0.526,0.392-0.631l10.938-4.38c0.121-0.051,0.253-0.057,0.379-0.028
					l11.423,2.729c0.262,0.061,0.456,0.283,0.481,0.552c0.023,0.267-0.123,0.519-0.368,0.631l-10.114,4.513
					C65.615,144.91,65.528,144.927,65.438,144.927z M55.271,141.286l10.104,2.354l8.232-3.671l-9.432-2.252L55.271,141.286z"/>
			</g>
			<g>
				<polygon style="fill:#5D5D5D;" points="85.453,135.377 74.733,132.813 64.131,137.061 75.554,139.789 				"/>
				<path style="fill:#5E2C00;" d="M75.554,140.418c-0.048,0-0.1-0.005-0.148-0.017l-11.42-2.73
					c-0.267-0.063-0.462-0.289-0.482-0.563c-0.021-0.275,0.139-0.529,0.392-0.629l10.604-4.25c0.12-0.047,0.252-0.057,0.377-0.027
					l10.724,2.563c0.259,0.064,0.452,0.285,0.479,0.555c0.024,0.267-0.125,0.519-0.373,0.631l-9.897,4.413
					C75.729,140.401,75.641,140.418,75.554,140.418z M66.196,136.909l9.297,2.221l8.018-3.574l-8.729-2.087L66.196,136.909z"/>
			</g>
			<g>
				<polygon style="fill:#5D5D5D;" points="75.554,139.789 65.438,144.302 77.409,147.099 87.528,142.651 				"/>
				<path style="fill:#5E2C00;" d="M77.409,147.724c-0.044,0-0.093-0.004-0.14-0.014l-11.974-2.798
					c-0.264-0.061-0.458-0.284-0.482-0.552c-0.024-0.269,0.124-0.522,0.369-0.633l10.116-4.511c0.124-0.055,0.27-0.065,0.399-0.036
					l11.973,2.861c0.264,0.063,0.455,0.285,0.48,0.555c0.024,0.268-0.125,0.521-0.371,0.631l-10.117,4.443
					C77.584,147.706,77.496,147.724,77.409,147.724z M67.398,144.116l9.95,2.324l8.219-3.612l-9.954-2.38L67.398,144.116z"/>
			</g>
			<g>
				<polygon style="fill:#5D5D5D;" points="214.801,145.471 203.375,149.972 215.455,152.861 227.638,148.337 				"/>
				<path style="fill:#5E2C00;" d="M215.455,153.488c-0.048,0-0.097-0.007-0.145-0.017l-12.08-2.891
					c-0.268-0.062-0.462-0.295-0.481-0.566c-0.019-0.272,0.142-0.526,0.396-0.629l11.426-4.499c0.117-0.05,0.246-0.059,0.371-0.029
					l12.835,2.865c0.27,0.064,0.466,0.293,0.486,0.57c0.02,0.28-0.145,0.534-0.404,0.633l-12.183,4.521
					C215.606,153.474,215.532,153.488,215.455,153.488z M205.459,149.823l9.959,2.385l10.014-3.721l-10.576-2.365L205.459,149.823z"
					/>
			</g>
			<g>
				<polygon style="fill:#5D5D5D;" points="171.208,162.652 182.084,165.251 193.194,161.128 181.917,158.431 				"/>
				<path style="fill:#5E2C00;" d="M182.084,165.879c-0.048,0-0.097-0.006-0.144-0.017l-10.879-2.598
					c-0.265-0.064-0.459-0.294-0.48-0.568c-0.018-0.271,0.143-0.525,0.395-0.625l10.71-4.224c0.12-0.048,0.252-0.055,0.376-0.026
					l11.28,2.693c0.267,0.066,0.461,0.297,0.479,0.574c0.018,0.273-0.148,0.529-0.409,0.627l-11.107,4.125
					C182.232,165.864,182.16,165.879,182.084,165.879z M173.292,162.507l8.752,2.09l8.998-3.341l-9.081-2.169L173.292,162.507z"/>
			</g>
			<g>
				<polygon style="fill:#5D5D5D;" points="159.267,159.8 149.161,163.846 161.106,166.637 171.208,162.652 				"/>
				<path style="fill:#5E2C00;" d="M161.106,167.266c-0.049,0-0.097-0.008-0.143-0.017l-11.945-2.791
					c-0.267-0.063-0.464-0.29-0.483-0.564c-0.02-0.273,0.138-0.527,0.394-0.627l10.104-4.049c0.123-0.051,0.254-0.059,0.381-0.029
					l11.939,2.854c0.27,0.063,0.462,0.296,0.479,0.566c0.02,0.273-0.138,0.529-0.395,0.627l-10.102,3.984
					C161.262,167.249,161.183,167.266,161.106,167.266z M151.243,163.689l9.814,2.293l8.068-3.182l-9.811-2.344L151.243,163.689z"/>
			</g>
			<g>
				<polygon style="fill:#5D5D5D;" points="161.106,166.637 171.697,169.11 182.084,165.251 171.208,162.652 				"/>
				<path style="fill:#5E2C00;" d="M171.697,169.733c-0.048,0-0.096-0.003-0.142-0.011l-10.592-2.474
					c-0.271-0.064-0.464-0.293-0.487-0.568c-0.019-0.271,0.144-0.527,0.399-0.626l10.1-3.983c0.122-0.052,0.254-0.058,0.376-0.029
					l10.879,2.598c0.267,0.066,0.464,0.299,0.479,0.574c0.019,0.276-0.145,0.53-0.404,0.627l-10.389,3.855
					C171.849,169.725,171.774,169.733,171.697,169.733z M163.205,166.481l8.453,1.973l8.273-3.072l-8.679-2.072L163.205,166.481z"/>
			</g>
			<g>
				<polygon style="fill:#5D5D5D;" points="147.319,156.942 135.371,154.085 123.412,151.229 111.457,148.373 99.491,145.515 
					87.528,142.651 77.409,147.099 89.378,149.889 101.342,152.685 113.303,155.476 125.261,158.267 137.214,161.06 
					149.161,163.846 159.267,159.8 				"/>
				<path style="fill:#5E2C00;" d="M149.161,164.476c-0.049,0-0.097-0.008-0.143-0.018L77.27,147.71
					c-0.264-0.063-0.458-0.284-0.484-0.555c-0.023-0.268,0.127-0.523,0.374-0.631l10.116-4.447c0.124-0.053,0.264-0.068,0.396-0.035
					l71.742,17.146c0.266,0.064,0.461,0.293,0.48,0.565c0.019,0.27-0.141,0.524-0.395,0.627l-10.105,4.047
					C149.321,164.458,149.242,164.476,149.161,164.476z M79.389,146.917l69.722,16.273l8.092-3.24l-69.616-16.639L79.389,146.917z"
					/>
			</g>
			<g>
				<polygon style="fill:#5D5D5D;" points="192.117,154.411 179.967,151.507 169.872,155.55 181.917,158.431 193.194,161.128 
					203.779,157.196 				"/>
				<path style="fill:#5E2C00;" d="M193.194,161.753c-0.048,0-0.099-0.004-0.146-0.018l-23.322-5.574
					c-0.266-0.066-0.46-0.293-0.479-0.564c-0.022-0.274,0.137-0.528,0.391-0.629l10.099-4.043c0.12-0.051,0.252-0.057,0.379-0.026
					l23.811,5.689c0.268,0.064,0.464,0.296,0.48,0.572c0.019,0.274-0.145,0.528-0.407,0.625l-10.587,3.931
					C193.344,161.739,193.27,161.753,193.194,161.753z M171.936,155.399l21.219,5.072l8.473-3.145l-21.612-5.163L171.936,155.399z"
					/>
			</g>
			<g>
				<polygon style="fill:#5D5D5D;" points="189.442,139.8 196.969,136.733 184.118,133.933 176.774,136.968 				"/>
				<path style="fill:#5E2C00;" d="M189.442,140.428c-0.044,0-0.09-0.006-0.137-0.015l-12.666-2.833
					c-0.268-0.059-0.465-0.284-0.487-0.558c-0.023-0.274,0.132-0.529,0.384-0.635l7.34-3.034c0.122-0.048,0.249-0.06,0.376-0.033
					l12.851,2.803c0.269,0.06,0.469,0.284,0.49,0.56c0.021,0.272-0.134,0.531-0.391,0.633l-7.521,3.063
					C189.604,140.413,189.523,140.428,189.442,140.428z M178.852,136.788l10.537,2.355l5.469-2.227l-10.684-2.328L178.852,136.788z"
					/>
			</g>
			<g>
				<polygon style="fill:#5D5D5D;" points="176.774,136.968 184.118,133.933 171.277,131.133 164.118,134.137 				"/>
				<path style="fill:#5E2C00;" d="M176.774,137.597c-0.041,0-0.09-0.008-0.135-0.017l-12.657-2.833
					c-0.265-0.059-0.462-0.283-0.485-0.559c-0.026-0.271,0.127-0.526,0.381-0.633l7.156-3c0.118-0.054,0.249-0.064,0.376-0.035
					l12.842,2.8c0.267,0.06,0.468,0.285,0.489,0.556c0.024,0.277-0.131,0.533-0.383,0.637l-7.34,3.035
					C176.941,137.58,176.858,137.597,176.774,137.597z M166.176,133.953l10.544,2.359l5.305-2.194l-10.688-2.33L166.176,133.953z"/>
			</g>
			<g>
				<polygon style="fill:#5D5D5D;" points="202.121,142.631 209.833,139.545 196.969,136.733 189.442,139.8 				"/>
				<path style="fill:#5E2C00;" d="M202.121,143.26c-0.045,0-0.093-0.007-0.137-0.015l-12.679-2.832
					c-0.267-0.062-0.464-0.289-0.487-0.562c-0.021-0.272,0.134-0.528,0.39-0.631l7.521-3.065c0.119-0.049,0.25-0.059,0.373-0.032
					l12.864,2.806c0.27,0.059,0.468,0.288,0.493,0.563c0.021,0.275-0.136,0.533-0.395,0.633l-7.711,3.09
					C202.282,143.245,202.201,143.26,202.121,143.26z M191.537,139.626l10.532,2.351l5.634-2.258l-10.68-2.329L191.537,139.626z"/>
			</g>
			<g>
				<polygon style="fill:#5D5D5D;" points="214.801,145.471 222.711,142.351 209.833,139.545 202.121,142.631 				"/>
				<path style="fill:#5E2C00;" d="M214.801,146.095c-0.044,0-0.09-0.004-0.137-0.014l-12.68-2.836
					c-0.27-0.063-0.466-0.29-0.488-0.563c-0.021-0.277,0.136-0.531,0.395-0.633l7.708-3.09c0.118-0.048,0.248-0.06,0.368-0.031
					l12.875,2.811c0.271,0.057,0.471,0.285,0.495,0.563c0.021,0.272-0.138,0.533-0.395,0.633l-7.907,3.116
					C214.96,146.081,214.88,146.095,214.801,146.095z M204.233,142.46l10.518,2.357l5.81-2.293l-10.672-2.328L204.233,142.46z"/>
			</g>
			<g>
				<polygon style="fill:#5D5D5D;" points="179.967,151.507 192.117,154.411 203.375,149.972 191.112,147.044 				"/>
				<path style="fill:#5E2C00;" d="M192.117,155.038c-0.048,0-0.098-0.006-0.146-0.018l-12.148-2.904
					c-0.268-0.063-0.46-0.289-0.48-0.564c-0.021-0.273,0.139-0.526,0.393-0.627l11.145-4.465c0.122-0.049,0.254-0.057,0.379-0.025
					l12.262,2.928c0.267,0.064,0.46,0.291,0.482,0.564c0.016,0.275-0.142,0.527-0.398,0.627l-11.258,4.441
					C192.274,155.023,192.196,155.038,192.117,155.038z M182.033,151.355l10.038,2.399l9.22-3.637l-10.13-2.42L182.033,151.355z"/>
			</g>
			<g>
				<polygon style="fill:#5D5D5D;" points="164.118,134.137 171.277,131.133 158.448,128.335 151.474,131.311 				"/>
				<path style="fill:#5E2C00;" d="M164.118,134.763c-0.045,0-0.09-0.006-0.136-0.016l-12.649-2.826
					c-0.263-0.059-0.459-0.284-0.486-0.553c-0.024-0.271,0.129-0.529,0.379-0.635l6.976-2.977c0.118-0.049,0.249-0.065,0.381-0.034
					l12.828,2.798c0.268,0.057,0.467,0.283,0.491,0.554c0.024,0.272-0.131,0.532-0.383,0.637l-7.158,3.002
					C164.287,134.747,164.203,134.763,164.118,134.763z M153.509,131.122l10.553,2.358l5.143-2.156l-10.692-2.334L153.509,131.122z"
					/>
			</g>
			<g>
				<polygon style="fill:#5D5D5D;" points="191.112,147.044 203.375,149.972 214.801,145.471 202.121,142.631 				"/>
				<path style="fill:#5E2C00;" d="M203.375,150.598c-0.049,0-0.097-0.006-0.145-0.017l-12.263-2.928
					c-0.268-0.063-0.46-0.29-0.479-0.563c-0.019-0.273,0.141-0.527,0.393-0.631l11.01-4.41c0.113-0.05,0.24-0.057,0.367-0.031
					l12.684,2.84c0.267,0.059,0.466,0.287,0.487,0.561c0.021,0.275-0.14,0.533-0.394,0.632l-11.431,4.503
					C203.53,150.582,203.453,150.598,203.375,150.598z M193.18,146.892l10.148,2.424l9.343-3.682l-10.496-2.348L193.18,146.892z"/>
			</g>
			<g>
				<polygon style="fill:#5D5D5D;" points="105.289,126.531 95.973,124.306 84.828,128.767 94.884,131.173 				"/>
				<path style="fill:#5E2C00;" d="M94.884,131.799c-0.047,0-0.099-0.007-0.147-0.018l-10.054-2.403
					c-0.265-0.063-0.456-0.29-0.479-0.565c-0.018-0.269,0.142-0.523,0.395-0.625l11.143-4.464c0.122-0.05,0.254-0.06,0.379-0.028
					l9.315,2.227c0.262,0.063,0.453,0.285,0.479,0.552c0.026,0.267-0.123,0.521-0.368,0.633l-10.406,4.642
					C95.058,131.78,94.971,131.799,94.884,131.799z M86.894,128.615l7.93,1.898l8.523-3.803l-7.324-1.749L86.894,128.615z"/>
			</g>
			<g>
				<polygon style="fill:#5D5D5D;" points="120.03,119.955 111.479,118.089 104.626,120.837 113.57,122.838 				"/>
				<path style="fill:#5E2C00;" d="M113.57,123.464c-0.045,0-0.093-0.004-0.139-0.016l-8.943-1.998
					c-0.267-0.062-0.464-0.289-0.485-0.563c-0.024-0.273,0.136-0.533,0.391-0.633l6.854-2.748c0.116-0.049,0.245-0.057,0.366-0.031
					l8.55,1.865c0.264,0.06,0.465,0.281,0.491,0.552c0.028,0.271-0.121,0.526-0.368,0.636l-6.46,2.883
					C113.745,123.444,113.657,123.464,113.57,123.464z M106.737,120.665l6.768,1.515l4.525-2.017l-6.495-1.418L106.737,120.665z"/>
			</g>
			<g>
				<polygon style="fill:#5D5D5D;" points="113.57,122.838 104.626,120.837 95.973,124.306 105.289,126.531 				"/>
				<path style="fill:#5E2C00;" d="M105.289,127.157c-0.05,0-0.099-0.004-0.146-0.018l-9.317-2.227
					c-0.266-0.063-0.458-0.291-0.48-0.564c-0.017-0.271,0.142-0.525,0.394-0.626l8.653-3.468c0.114-0.049,0.244-0.059,0.371-0.031
					l8.943,2.002c0.262,0.057,0.459,0.277,0.487,0.547c0.024,0.271-0.121,0.525-0.369,0.639l-8.28,3.694
					C105.464,127.14,105.377,127.157,105.289,127.157z M98.037,124.151l7.188,1.719l6.36-2.836l-6.908-1.543L98.037,124.151z"/>
			</g>
			<g>
				<polygon style="fill:#5D5D5D;" points="94.884,131.173 84.828,128.767 74.733,132.813 85.453,135.377 				"/>
				<path style="fill:#5E2C00;" d="M85.453,136.002c-0.047,0-0.095-0.006-0.146-0.017l-10.721-2.564
					c-0.264-0.063-0.46-0.291-0.479-0.563c-0.02-0.274,0.14-0.526,0.394-0.629l10.097-4.043c0.119-0.051,0.253-0.059,0.379-0.027
					l10.054,2.402c0.261,0.065,0.456,0.285,0.478,0.553c0.025,0.268-0.123,0.521-0.368,0.633l-9.432,4.203
					C85.628,135.985,85.543,136.002,85.453,136.002z M76.799,132.659l8.593,2.057l7.548-3.363l-8.063-1.93L76.799,132.659z"/>
			</g>
			<g>
				<polygon style="fill:#5D5D5D;" points="138.831,128.48 145.63,125.538 132.824,122.746 126.195,125.659 				"/>
				<path style="fill:#5E2C00;" d="M138.831,129.108c-0.045,0-0.094-0.004-0.14-0.016l-12.636-2.822
					c-0.264-0.062-0.461-0.282-0.487-0.553c-0.025-0.27,0.123-0.525,0.374-0.634l6.629-2.914c0.118-0.05,0.255-0.065,0.385-0.037
					l12.807,2.794c0.266,0.057,0.468,0.28,0.493,0.549c0.023,0.271-0.127,0.531-0.376,0.637l-6.802,2.943
					C139.001,129.091,138.915,129.108,138.831,129.108z M128.198,125.463l10.569,2.362l4.826-2.089l-10.706-2.333L128.198,125.463z"
					/>
			</g>
			<g>
				<polygon style="fill:#5D5D5D;" points="151.474,131.311 158.448,128.335 145.63,125.538 138.831,128.48 				"/>
				<path style="fill:#5E2C00;" d="M151.474,131.939c-0.047,0-0.095-0.006-0.141-0.018l-12.642-2.828
					c-0.265-0.059-0.462-0.282-0.487-0.553c-0.025-0.27,0.128-0.526,0.378-0.635l6.801-2.943c0.118-0.051,0.252-0.066,0.38-0.035
					l12.819,2.796c0.265,0.058,0.464,0.28,0.49,0.552c0.023,0.273-0.127,0.529-0.379,0.637l-6.975,2.977
					C151.639,131.919,151.556,131.939,151.474,131.939z M140.85,128.29l10.562,2.363l4.982-2.127l-10.701-2.334L140.85,128.29z"/>
			</g>
			<g>
				<polygon style="fill:#5D5D5D;" points="126.195,125.659 132.824,122.746 120.03,119.955 113.57,122.838 				"/>
				<path style="fill:#5E2C00;" d="M126.195,126.284c-0.046,0-0.095-0.005-0.14-0.014l-12.624-2.822
					c-0.263-0.059-0.456-0.279-0.486-0.551c-0.025-0.27,0.123-0.525,0.368-0.633l6.459-2.883c0.124-0.054,0.261-0.068,0.391-0.041
					l12.793,2.792c0.268,0.058,0.464,0.278,0.49,0.55c0.028,0.271-0.122,0.527-0.372,0.637l-6.627,2.914
					C126.366,126.269,126.28,126.284,126.195,126.284z M115.558,122.639l10.571,2.362l4.675-2.055l-10.707-2.336L115.558,122.639z"
					/>
			</g>
		</g>
	</g>
</g>
</svg>
